<svg xmlns="http://www.w3.org/2000/svg" xmlns:xlink="http://www.w3.org/1999/xlink" width="111" zoomAndPan="magnify" viewBox="0 0 83.25 121.499994" height="162" preserveAspectRatio="xMidYMid meet" version="1.0"><defs><clipPath id="4e350046a7"><path d="M 2 43 L 50 43 L 50 120.710938 L 2 120.710938 Z M 2 43 " clip-rule="nonzero"/></clipPath><clipPath id="08c351ece1"><path d="M 21 63 L 81.761719 63 L 81.761719 108 L 21 108 Z M 21 63 " clip-rule="nonzero"/></clipPath></defs><path fill="#e0b5eb" d="M 62.183594 20.113281 C 62.0625 20.109375 20 18.660156 20.613281 37.863281 C 21.214844 56.730469 65.195312 51.03125 65.320312 51.015625 L 67.460938 68.570312 C 67.28125 68.59375 4.214844 76.882812 2.988281 38.417969 C 1.769531 0.285156 62.492188 2.484375 62.667969 2.488281 Z M 62.183594 20.113281 " fill-opacity="1" fill-rule="nonzero"/><path fill="#ffffff" d="M 16.355469 43.25 C 16.140625 43.398438 15.914062 43.535156 15.675781 43.660156 C 15.238281 43.890625 14.769531 44.078125 14.273438 44.214844 L 14.265625 44.214844 C 12.476562 44.710938 10.664062 44.472656 9.179688 43.6875 C 7.679688 42.894531 6.511719 41.539062 6.035156 39.816406 L 6.03125 39.808594 C 5.558594 38.085938 5.863281 36.332031 6.738281 34.882812 C 7.609375 33.441406 9.042969 32.304688 10.835938 31.808594 C 11.316406 31.675781 11.796875 31.59375 12.273438 31.5625 C 12.496094 31.546875 12.722656 31.542969 12.945312 31.550781 C 13.582031 28.917969 15.027344 26.433594 17.085938 24.375 C 19.253906 22.207031 22.113281 20.5 25.441406 19.578125 C 28.320312 18.78125 31.195312 18.667969 33.84375 19.128906 C 36.148438 19.535156 38.285156 20.375 40.105469 21.589844 C 40.367188 21.390625 40.644531 21.210938 40.9375 21.050781 C 41.410156 20.789062 41.925781 20.574219 42.476562 20.421875 L 42.484375 20.421875 C 44.273438 19.925781 46.085938 20.164062 47.570312 20.949219 C 49.070312 21.742188 50.238281 23.097656 50.714844 24.820312 L 50.71875 24.839844 C 51.191406 26.554688 50.886719 28.308594 50.011719 29.753906 C 49.140625 31.191406 47.707031 32.332031 45.914062 32.828125 L 45.796875 32.859375 C 45.421875 35.46875 43.925781 37.726562 41.707031 39.605469 C 39.109375 41.804688 35.503906 43.484375 31.550781 44.578125 C 28.21875 45.503906 25.097656 45.882812 22.390625 45.59375 C 20.035156 45.34375 17.984375 44.589844 16.355469 43.25 Z M 14.917969 42.203125 L 15.160156 42.070312 C 14.78125 41.625 14.441406 41.132812 14.136719 40.601562 C 13.679688 39.800781 13.308594 38.898438 13.027344 37.890625 C 12.886719 37.382812 12.78125 36.871094 12.707031 36.359375 C 11.941406 36.722656 10.984375 37.589844 11.492188 39.605469 C 11.601562 40.042969 11.332031 40.492188 10.890625 40.601562 C 10.453125 40.710938 10.003906 40.445312 9.894531 40.003906 C 8.960938 36.292969 11.316406 35.046875 12.578125 34.648438 C 12.578125 34.164062 12.601562 33.675781 12.65625 33.191406 L 12.375 33.203125 C 12.007812 33.226562 11.640625 33.289062 11.273438 33.390625 C 9.902344 33.769531 8.808594 34.636719 8.148438 35.730469 C 7.503906 36.792969 7.273438 38.074219 7.601562 39.320312 C 7.617188 39.359375 7.625 39.398438 7.632812 39.4375 C 7.996094 40.675781 8.851562 41.652344 9.949219 42.234375 C 11.0625 42.824219 12.425781 43.007812 13.777344 42.648438 C 13.816406 42.632812 13.855469 42.621094 13.894531 42.613281 C 14.257812 42.507812 14.601562 42.371094 14.917969 42.203125 Z M 14.414062 32.542969 L 14.398438 32.621094 C 14.253906 33.417969 14.195312 34.230469 14.230469 35.046875 C 14.265625 35.847656 14.390625 36.652344 14.609375 37.453125 C 14.851562 38.324219 15.171875 39.105469 15.566406 39.792969 C 15.953125 40.472656 16.410156 41.0625 16.921875 41.5625 L 16.96875 41.601562 C 18.390625 42.960938 20.304688 43.71875 22.5625 43.960938 C 25.0625 44.226562 27.976562 43.867188 31.117188 42.996094 C 34.847656 41.960938 38.234375 40.390625 40.648438 38.351562 C 42.710938 36.601562 44.046875 34.511719 44.222656 32.125 C 44.253906 31.671875 44.25 31.210938 44.199219 30.742188 C 44.152344 30.285156 44.0625 29.808594 43.925781 29.324219 C 43.613281 28.199219 43.128906 27.160156 42.503906 26.222656 C 42.386719 26.050781 42.269531 25.882812 42.144531 25.71875 C 41.972656 25.636719 41.828125 25.496094 41.742188 25.308594 C 41.722656 25.257812 41.703125 25.207031 41.691406 25.15625 C 41.21875 24.605469 40.6875 24.09375 40.113281 23.628906 C 39.976562 23.519531 39.835938 23.410156 39.691406 23.304688 L 39.632812 23.261719 C 37.917969 22.015625 35.835938 21.148438 33.5625 20.75 C 31.140625 20.328125 28.507812 20.433594 25.878906 21.160156 C 22.839844 22.003906 20.230469 23.5625 18.25 25.539062 C 16.242188 27.550781 14.890625 29.988281 14.414062 32.542969 Z M 42.863281 24 C 44.140625 23.683594 46.824219 23.519531 47.9375 27.203125 C 48.070312 27.636719 47.824219 28.09375 47.390625 28.226562 C 46.957031 28.355469 46.5 28.109375 46.367188 27.679688 C 45.84375 25.945312 44.8125 25.53125 44 25.511719 C 44.660156 26.539062 45.171875 27.671875 45.507812 28.886719 C 45.667969 29.460938 45.777344 30.023438 45.832031 30.578125 C 45.851562 30.757812 45.867188 30.941406 45.875 31.121094 C 47.058594 30.691406 48.007812 29.890625 48.601562 28.90625 C 49.246094 27.84375 49.476562 26.5625 49.148438 25.316406 C 49.136719 25.277344 49.125 25.238281 49.117188 25.199219 C 48.753906 23.960938 47.898438 22.984375 46.800781 22.402344 C 45.6875 21.8125 44.328125 21.632812 42.976562 21.988281 C 42.9375 22.003906 42.894531 22.015625 42.855469 22.023438 C 42.457031 22.136719 42.078125 22.296875 41.726562 22.492188 L 41.484375 22.632812 C 41.976562 23.058594 42.4375 23.511719 42.863281 24 Z M 42.863281 24 " fill-opacity="1" fill-rule="nonzero"/><path fill="#ffffff" d="M 22.332031 37.898438 C 21.996094 37.597656 21.96875 37.078125 22.269531 36.742188 C 22.570312 36.402344 23.089844 36.375 23.425781 36.675781 C 23.433594 36.683594 25.816406 38.914062 30.355469 37.699219 C 34.859375 36.492188 35.765625 32.585938 35.765625 32.574219 C 35.871094 32.132812 36.3125 31.863281 36.753906 31.964844 C 37.195312 32.070312 37.46875 32.511719 37.363281 32.953125 C 37.359375 32.96875 36.230469 37.828125 30.78125 39.285156 C 25.371094 40.734375 22.34375 37.90625 22.332031 37.898438 Z M 26.207031 28.144531 C 25.886719 27.820312 25.886719 27.300781 26.207031 26.980469 C 26.53125 26.65625 27.050781 26.65625 27.371094 26.980469 C 27.378906 26.988281 30.339844 29.898438 29.058594 32.492188 C 28.859375 32.898438 28.367188 33.0625 27.957031 32.863281 C 27.550781 32.664062 27.386719 32.171875 27.585938 31.765625 C 28.335938 30.242188 26.214844 28.148438 26.207031 28.144531 Z M 26.207031 28.144531 " fill-opacity="1" fill-rule="nonzero"/><path fill="#ffffff" d="M 21.148438 39.402344 C 20.714844 39.527344 20.257812 39.277344 20.132812 38.84375 C 20.007812 38.40625 20.257812 37.953125 20.691406 37.828125 C 20.699219 37.824219 22.496094 37.300781 22.558594 36.09375 C 22.582031 35.640625 22.96875 35.292969 23.421875 35.316406 C 23.871094 35.339844 24.222656 35.726562 24.199219 36.179688 C 24.078125 38.546875 21.15625 39.398438 21.148438 39.402344 Z M 21.148438 39.402344 " fill-opacity="1" fill-rule="nonzero"/><path fill="#ffffff" d="M 34.820312 32.730469 C 34.53125 32.378906 34.578125 31.863281 34.925781 31.574219 C 35.273438 31.285156 35.789062 31.332031 36.078125 31.679688 C 36.082031 31.683594 36.640625 32.371094 37.976562 31.832031 C 38.398438 31.660156 38.878906 31.863281 39.046875 32.285156 C 39.21875 32.707031 39.015625 33.183594 38.59375 33.355469 C 36.140625 34.347656 34.824219 32.734375 34.820312 32.730469 Z M 34.820312 32.730469 " fill-opacity="1" fill-rule="nonzero"/><path fill="#ffffff" d="M 21.976562 28.902344 C 22.613281 28.726562 23.367188 29.433594 23.660156 30.488281 C 23.949219 31.539062 23.667969 32.535156 23.03125 32.710938 C 22.394531 32.886719 21.640625 32.179688 21.347656 31.128906 C 21.058594 30.074219 21.339844 29.082031 21.976562 28.902344 Z M 21.976562 28.902344 " fill-opacity="1" fill-rule="evenodd"/><path fill="#ffffff" d="M 32.960938 25.566406 C 33.597656 25.390625 34.351562 26.097656 34.644531 27.148438 C 34.933594 28.203125 34.652344 29.195312 34.015625 29.375 C 33.375 29.550781 32.625 28.84375 32.332031 27.789062 C 32.039062 26.738281 32.320312 25.742188 32.960938 25.566406 Z M 32.960938 25.566406 " fill-opacity="1" fill-rule="evenodd"/><g clip-path="url(#4e350046a7)"><path fill="#ffffff" d="M 2.921875 44.355469 C 2.941406 43.902344 3.328125 43.550781 3.78125 43.574219 C 4.234375 43.59375 4.582031 43.980469 4.5625 44.433594 C 4.554688 44.566406 1.785156 91.386719 36.316406 109.359375 C 36.542969 109.480469 36.691406 109.6875 36.742188 109.921875 L 38.546875 117.109375 L 47.644531 99.050781 C 43.371094 96.359375 19.128906 80.351562 15.664062 61.488281 C 15.582031 61.042969 15.875 60.613281 16.324219 60.535156 C 16.769531 60.453125 17.195312 60.746094 17.277344 61.191406 C 20.871094 80.738281 47.957031 97.328125 49.101562 98.023438 C 49.496094 98.230469 49.652344 98.71875 49.449219 99.117188 L 39.039062 119.785156 C 38.9375 120.007812 38.742188 120.183594 38.484375 120.246094 C 38.046875 120.355469 37.597656 120.089844 37.488281 119.648438 L 35.226562 110.640625 C 0.101562 92.050781 2.914062 44.492188 2.921875 44.355469 Z M 2.921875 44.355469 " fill-opacity="1" fill-rule="nonzero"/></g><g clip-path="url(#08c351ece1)"><path fill="#ffffff" d="M 22.097656 64.914062 C 21.839844 64.539062 21.929688 64.027344 22.304688 63.769531 C 22.675781 63.507812 23.1875 63.601562 23.449219 63.972656 C 23.507812 64.0625 44.53125 94.582031 73.933594 95.578125 C 74.265625 95.585938 74.542969 95.792969 74.664062 96.082031 L 77.652344 103.265625 L 80.273438 78.214844 C 75.390625 78.5 53.355469 79.152344 37.832031 69.027344 C 37.453125 68.78125 37.34375 68.273438 37.589844 67.894531 C 37.835938 67.511719 38.34375 67.40625 38.726562 67.652344 C 55.769531 78.765625 81.050781 76.511719 81.125 76.503906 C 81.171875 76.503906 81.222656 76.503906 81.273438 76.507812 C 81.726562 76.554688 82.054688 76.957031 82.007812 77.410156 L 78.953125 106.613281 C 78.933594 106.917969 78.75 107.199219 78.449219 107.324219 C 78.03125 107.496094 77.546875 107.296875 77.375 106.878906 L 73.347656 97.191406 C 43.386719 95.820312 22.160156 65.003906 22.097656 64.914062 Z M 22.097656 64.914062 " fill-opacity="1" fill-rule="nonzero"/></g><path fill="#ffffff" d="M 4.488281 63.613281 C 4.210938 63.257812 4.273438 62.742188 4.628906 62.464844 C 4.988281 62.183594 5.503906 62.246094 5.78125 62.605469 C 5.792969 62.621094 10.019531 68.1875 20.738281 71.023438 C 21.175781 71.140625 21.4375 71.589844 21.324219 72.027344 C 21.207031 72.464844 20.757812 72.730469 20.320312 72.613281 C 9.0625 69.632812 4.5 63.632812 4.488281 63.613281 Z M 4.488281 63.613281 " fill-opacity="1" fill-rule="nonzero"/><path fill="#ffffff" d="M 28.261719 72.261719 C 27.820312 72.152344 27.550781 71.707031 27.660156 71.265625 C 27.765625 70.828125 28.214844 70.558594 28.652344 70.664062 C 28.671875 70.671875 35.066406 72.261719 42.242188 69.972656 C 42.671875 69.835938 43.132812 70.074219 43.269531 70.503906 C 43.40625 70.9375 43.167969 71.398438 42.738281 71.535156 C 35.117188 73.96875 28.28125 72.265625 28.261719 72.261719 Z M 28.261719 72.261719 " fill-opacity="1" fill-rule="nonzero"/><path fill="#ffffff" d="M 62.714844 7.15625 C 62.265625 7.21875 61.851562 6.90625 61.789062 6.457031 C 61.726562 6.007812 62.042969 5.589844 62.492188 5.53125 C 62.515625 5.527344 71.246094 4.296875 72.414062 5.996094 C 73.203125 7.144531 72.214844 7.941406 70.96875 8.464844 C 71.894531 8.808594 72.738281 9.25 72.984375 9.769531 C 73.429688 10.726562 72.351562 11.324219 71.097656 11.6875 C 72.402344 12.300781 73.695312 13.101562 73.78125 13.898438 C 73.917969 15.113281 71.863281 15.546875 70.179688 15.699219 C 71.175781 16.71875 72.15625 18.117188 71.589844 19.300781 C 70.527344 21.511719 62.03125 18.21875 62.007812 18.207031 C 61.582031 18.046875 61.367188 17.570312 61.53125 17.148438 C 61.691406 16.722656 62.167969 16.507812 62.589844 16.671875 C 62.613281 16.679688 69.714844 19.410156 70.109375 18.59375 C 70.53125 17.71875 67.59375 15.628906 67.585938 15.621094 C 67.375 15.46875 67.242188 15.222656 67.246094 14.941406 C 67.25 14.488281 67.625 14.128906 68.078125 14.136719 C 68.089844 14.136719 72.164062 14.21875 72.148438 14.078125 C 72.09375 13.574219 68.300781 12.328125 67.855469 12.183594 C 67.527344 12.097656 67.273438 11.8125 67.246094 11.453125 C 67.207031 11 67.542969 10.605469 67.996094 10.566406 C 68.007812 10.566406 71.585938 10.65625 71.496094 10.464844 C 71.257812 9.953125 67.667969 9.269531 67.660156 9.269531 C 67.332031 9.203125 67.0625 8.941406 67.007812 8.59375 C 66.933594 8.144531 67.238281 7.722656 67.683594 7.652344 C 67.695312 7.648438 71.171875 7.089844 71.0625 6.929688 C 70.46875 6.066406 62.738281 7.15625 62.714844 7.15625 Z M 62.714844 7.15625 " fill-opacity="1" fill-rule="nonzero"/><path fill="#ffffff" d="M 66.914062 66.597656 C 66.460938 66.578125 66.109375 66.195312 66.128906 65.742188 C 66.148438 65.289062 66.53125 64.9375 66.984375 64.957031 C 67.007812 64.960938 74.804688 65.3125 75.3125 64.394531 C 75.417969 64.203125 71.898438 63.996094 71.890625 63.996094 C 71.4375 63.96875 71.089844 63.578125 71.117188 63.125 C 71.136719 62.773438 71.378906 62.484375 71.703125 62.386719 C 71.710938 62.382812 75.21875 61.359375 75.40625 60.832031 C 75.460938 60.683594 71.929688 61.058594 71.921875 61.058594 C 71.46875 61.070312 71.09375 60.707031 71.085938 60.253906 C 71.078125 59.90625 71.289062 59.605469 71.589844 59.480469 C 71.601562 59.476562 75.707031 57.746094 75.714844 57.175781 C 75.71875 57.023438 71.671875 57.503906 71.660156 57.503906 C 71.207031 57.554688 70.800781 57.230469 70.75 56.78125 C 70.714844 56.488281 70.839844 56.210938 71.054688 56.039062 C 71.324219 55.808594 73.734375 53.671875 73.253906 52.871094 C 72.777344 52.085938 65.976562 55.484375 65.957031 55.496094 C 65.550781 55.699219 65.058594 55.535156 64.855469 55.128906 C 64.652344 54.722656 64.816406 54.230469 65.222656 54.027344 C 65.246094 54.015625 73.402344 49.9375 74.660156 52.023438 C 75.335938 53.140625 74.488281 54.632812 73.59375 55.746094 C 75.285156 55.738281 77.375 55.976562 77.355469 57.191406 C 77.34375 57.988281 76.109375 58.921875 74.851562 59.664062 C 76.148438 59.90625 77.304688 60.398438 76.957031 61.378906 C 76.765625 61.925781 75.960938 62.449219 75.066406 62.878906 C 76.355469 63.28125 77.417969 63.980469 76.746094 65.191406 C 75.75 66.988281 66.9375 66.601562 66.914062 66.597656 Z M 66.914062 66.597656 " fill-opacity="1" fill-rule="nonzero"/><path stroke-linecap="butt" transform="matrix(0.731231, 0.133423, -0.133423, 0.731231, 28.432988, 54.109124)" fill="none" stroke-linejoin="miter" d="M 0.00210863 1.997873 L 35.874492 2.001807 " stroke="#e0b5eb" stroke-width="4" stroke-opacity="1" stroke-miterlimit="4"/></svg>