<svg xmlns="http://www.w3.org/2000/svg" xmlns:xlink="http://www.w3.org/1999/xlink" width="321" zoomAndPan="magnify" viewBox="0 0 240.75 204.749996" height="273" preserveAspectRatio="xMidYMid meet" version="1.0"><defs><clipPath id="d4c9fa255c"><path d="M 118 83 L 173 83 L 173 203.75 L 118 203.75 Z M 118 83 " clip-rule="nonzero"/></clipPath><clipPath id="134c3c4ed1"><path d="M 0.0234375 47 L 111 47 L 111 137 L 0.0234375 137 Z M 0.0234375 47 " clip-rule="nonzero"/></clipPath><clipPath id="9b438d7e8d"><path d="M 180 0 L 239.730469 0 L 239.730469 67 L 180 67 Z M 180 0 " clip-rule="nonzero"/></clipPath></defs><path fill="#ffd86e" d="M 186.457031 95.195312 C 185.058594 95.875 183.621094 96.511719 182.144531 97.089844 C 152.441406 108.726562 118.929688 94.085938 107.289062 64.382812 C 95.652344 34.679688 110.292969 1.164062 139.996094 -10.472656 C 141.472656 -11.050781 142.957031 -11.5625 144.449219 -12.011719 Z M 186.457031 95.195312 " fill-opacity="1" fill-rule="evenodd"/><g clip-path="url(#d4c9fa255c)"><path fill="#ffffff" d="M 118.902344 85.8125 C 118.902344 84.804688 119.722656 83.984375 120.730469 83.984375 C 121.738281 83.984375 122.558594 84.804688 122.558594 85.8125 L 122.558594 200.394531 L 166.507812 200.394531 L 152.339844 183.191406 C 152.132812 182.9375 152.003906 182.644531 151.953125 182.34375 L 137.800781 100.191406 C 137.632812 99.199219 138.300781 98.253906 139.292969 98.085938 C 140.285156 97.914062 141.226562 98.582031 141.398438 99.578125 L 155.464844 181.257812 L 171.679688 200.949219 C 172 201.277344 172.199219 201.726562 172.199219 202.222656 C 172.199219 203.230469 171.378906 204.050781 170.371094 204.050781 L 120.730469 204.050781 C 119.722656 204.050781 118.902344 203.230469 118.902344 202.222656 Z M 118.902344 85.8125 " fill-opacity="1" fill-rule="nonzero"/></g><g clip-path="url(#134c3c4ed1)"><path fill="#ffffff" d="M 101.980469 48.054688 C 102.925781 47.714844 103.964844 48.207031 104.304688 49.152344 C 104.644531 50.097656 104.152344 51.140625 103.207031 51.480469 L 4.660156 87.089844 L 18.214844 128.21875 L 24.125 109.359375 C 24.289062 108.839844 24.660156 108.441406 25.121094 108.238281 L 107.726562 66.566406 C 108.625 66.113281 109.722656 66.472656 110.175781 67.371094 C 110.628906 68.269531 110.265625 69.363281 109.367188 69.816406 L 27.378906 111.179688 L 20.019531 134.660156 C 19.863281 135.230469 19.433594 135.71875 18.828125 135.917969 C 17.871094 136.230469 16.839844 135.710938 16.523438 134.753906 L 0.636719 86.550781 L 0.644531 86.550781 C 0.335938 85.617188 0.828125 84.601562 1.757812 84.269531 Z M 101.980469 48.054688 " fill-opacity="1" fill-rule="nonzero"/></g><path fill="#ffffff" d="M 59.039062 65.738281 C 58.585938 64.839844 58.945312 63.746094 59.84375 63.292969 C 60.742188 62.839844 61.835938 63.199219 62.289062 64.097656 L 73.320312 85.960938 C 73.773438 86.859375 73.410156 87.957031 72.515625 88.410156 C 71.617188 88.863281 70.519531 88.5 70.066406 87.605469 Z M 59.039062 65.738281 " fill-opacity="1" fill-rule="nonzero"/><path fill="#ffffff" d="M 120.820312 137.527344 C 119.816406 137.578125 118.960938 136.804688 118.910156 135.800781 C 118.859375 134.792969 119.632812 133.9375 120.636719 133.886719 L 145.445312 132.558594 C 146.453125 132.507812 147.308594 133.28125 147.359375 134.285156 C 147.410156 135.289062 146.636719 136.148438 145.632812 136.199219 Z M 120.820312 137.527344 " fill-opacity="1" fill-rule="nonzero"/><path fill="#ffffff" d="M 145.613281 -13.421875 C 146.335938 -12.722656 146.359375 -11.570312 145.664062 -10.84375 C 144.964844 -10.121094 143.8125 -10.097656 143.085938 -10.796875 C 134.835938 -18.746094 123.609375 -27.214844 109.167969 -33.285156 C 97.929688 -38.003906 84.75 -41.273438 69.515625 -41.710938 L 69.503906 -41.710938 C 69.117188 -41.722656 63.550781 -41.871094 63.613281 -41.519531 C 63.800781 -40.460938 67.558594 -40.507812 67.570312 -40.507812 C 68.578125 -40.507812 69.398438 -39.6875 69.398438 -38.679688 C 69.398438 -37.761719 68.71875 -37 67.835938 -36.871094 C 67.140625 -36.699219 64.292969 -35.976562 64.324219 -35.734375 C 64.351562 -35.527344 69.203125 -35.683594 69.214844 -35.683594 C 70.222656 -35.714844 71.0625 -34.925781 71.09375 -33.921875 C 71.121094 -32.984375 70.4375 -32.1875 69.53125 -32.058594 C 69.519531 -32.054688 65.246094 -31.421875 65.375 -30.625 C 65.527344 -29.667969 77.6875 -30.585938 77.71875 -30.589844 C 78.726562 -30.664062 79.601562 -29.910156 79.675781 -28.902344 C 79.742188 -28.011719 79.15625 -27.222656 78.324219 -27.003906 C 77.65625 -26.777344 73.527344 -25.285156 74.128906 -23.625 C 74.441406 -22.765625 78.253906 -23.648438 81.699219 -24.449219 C 83.890625 -24.960938 85.96875 -25.441406 87.507812 -25.441406 C 89.457031 -25.441406 97.761719 -22.476562 107.1875 -16.550781 C 113.027344 -12.875 119.394531 -8.046875 125.089844 -2.058594 C 125.785156 -1.332031 125.753906 -0.175781 125.027344 0.515625 C 124.296875 1.210938 123.144531 1.179688 122.449219 0.453125 C 116.984375 -5.292969 110.863281 -9.933594 105.25 -13.46875 C 96.429688 -19.015625 89.09375 -21.789062 87.507812 -21.789062 C 86.347656 -21.789062 84.480469 -21.355469 82.515625 -20.898438 C 77.578125 -19.75 72.121094 -18.484375 70.703125 -22.382812 C 70.058594 -24.15625 70.574219 -25.648438 71.546875 -26.851562 C 67.1875 -27 62.152344 -27.691406 61.777344 -30.054688 C 61.582031 -31.277344 62.0625 -32.253906 62.855469 -33.027344 C 61.71875 -33.507812 60.851562 -34.222656 60.714844 -35.28125 C 60.570312 -36.378906 61.207031 -37.308594 62.125 -38.066406 C 61.089844 -38.664062 60.253906 -39.558594 60.015625 -40.890625 C 59.148438 -45.777344 69.421875 -45.359375 69.605469 -45.351562 L 69.617188 -45.351562 C 85.371094 -44.898438 98.984375 -41.523438 110.578125 -36.652344 C 125.492188 -30.386719 137.085938 -21.636719 145.613281 -13.421875 Z M 145.613281 -13.421875 " fill-opacity="1" fill-rule="nonzero"/><path fill="#ffffff" d="M 161.941406 101.144531 C 161.445312 100.269531 161.753906 99.15625 162.628906 98.660156 C 163.503906 98.164062 164.613281 98.46875 165.109375 99.34375 C 170.789062 109.300781 179.175781 120.589844 191.316406 130.476562 C 200.757812 138.164062 212.480469 145.007812 226.992188 149.726562 L 227.128906 149.777344 C 227.96875 150.054688 232.667969 151.589844 232.710938 151.21875 L 232.710938 151.214844 C 232.828125 150.128906 229.214844 149.121094 229.203125 149.117188 C 228.238281 148.835938 227.683594 147.828125 227.960938 146.863281 C 228.199219 146.042969 228.964844 145.515625 229.78125 145.550781 C 229.792969 145.546875 233.617188 145.699219 233.652344 145.46875 L 233.652344 145.460938 C 233.675781 145.320312 228.960938 144.027344 228.949219 144.023438 C 227.980469 143.753906 227.410156 142.75 227.679688 141.78125 C 227.921875 140.894531 228.789062 140.339844 229.675781 140.460938 C 229.6875 140.460938 233.988281 141.046875 234.085938 140.261719 C 234.203125 139.367188 222.273438 136.746094 222.242188 136.738281 C 221.261719 136.519531 220.640625 135.546875 220.855469 134.566406 C 221.042969 133.734375 221.769531 133.164062 222.582031 133.140625 C 222.597656 133.140625 227.777344 132.984375 227.65625 131.078125 C 227.597656 130.164062 223.699219 129.9375 220.171875 129.734375 C 217.933594 129.609375 215.808594 129.484375 214.3125 129.046875 C 212.4375 128.496094 205.304688 123.3125 197.933594 114.972656 C 193.363281 109.800781 188.613281 103.371094 184.835938 96.027344 C 184.375 95.132812 184.726562 94.035156 185.621094 93.574219 C 186.515625 93.113281 187.617188 93.464844 188.078125 94.359375 C 191.707031 101.417969 196.269531 107.59375 200.660156 112.5625 C 207.5625 120.375 213.816406 125.101562 215.339844 125.550781 C 216.433594 125.871094 218.351562 125.980469 220.371094 126.097656 C 225.4375 126.386719 231.035156 126.707031 231.296875 130.851562 C 231.414062 132.722656 230.511719 134.007812 229.25 134.886719 C 233.386719 136.242188 238.007812 138.3125 237.699219 140.71875 C 237.542969 141.9375 236.820312 142.738281 235.859375 143.261719 C 236.785156 144.023438 237.394531 144.9375 237.253906 145.976562 L 237.25 146.03125 C 237.070312 147.136719 236.203125 147.855469 235.113281 148.324219 C 235.933594 149.1875 236.480469 150.277344 236.335938 151.613281 C 235.820312 156.203125 227.179688 153.609375 225.992188 153.230469 L 225.863281 153.195312 C 210.894531 148.328125 198.78125 141.253906 189.015625 133.300781 C 176.464844 123.082031 167.804688 111.421875 161.941406 101.144531 Z M 161.941406 101.144531 " fill-opacity="1" fill-rule="nonzero"/><path fill="#ffffff" d="M 165.042969 10.40625 C 164.996094 10.484375 164.949219 10.5625 164.890625 10.632812 C 162.546875 14.261719 161.683594 18.707031 162.0625 23.683594 C 162.480469 29.246094 164.4375 35.457031 167.59375 41.957031 C 171.347656 49.6875 176.128906 56.457031 181.542969 60.894531 C 186.183594 64.699219 191.289062 66.769531 196.574219 66.195312 C 197.5625 66.089844 198.558594 65.890625 199.566406 65.59375 C 200.550781 65.304688 201.546875 64.917969 202.558594 64.429688 C 204.886719 63.296875 206.960938 61.824219 208.753906 60.078125 C 209.082031 59.761719 209.398438 59.4375 209.703125 59.101562 C 209.808594 58.695312 210.058594 58.320312 210.433594 58.058594 C 210.535156 57.988281 210.644531 57.925781 210.757812 57.878906 C 211.773438 56.625 212.667969 55.269531 213.449219 53.828125 C 215.890625 49.3125 217.160156 43.976562 217.113281 38.375 C 217.066406 32.933594 215.78125 27.234375 213.132812 21.777344 C 210.074219 15.476562 205.628906 10.40625 200.527344 6.886719 C 195.328125 3.300781 189.457031 1.332031 183.683594 1.320312 L 183.550781 1.320312 C 181.746094 1.324219 179.941406 1.523438 178.167969 1.925781 L 177.699219 2.039062 C 176.128906 2.429688 174.578125 2.988281 173.070312 3.722656 C 171.25 4.605469 169.679688 5.617188 168.347656 6.738281 C 167.03125 7.847656 165.933594 9.074219 165.042969 10.40625 Z M 161.117188 9.859375 C 160.710938 9.449219 160.324219 9.007812 159.957031 8.539062 C 159.277344 7.667969 158.679688 6.71875 158.179688 5.691406 C 156.378906 1.984375 156.171875 -2.070312 157.289062 -5.625 C 158.421875 -9.21875 160.910156 -12.3125 164.476562 -14.046875 C 168.039062 -15.777344 172 -15.816406 175.523438 -14.484375 C 179.015625 -13.160156 182.074219 -10.488281 183.878906 -6.773438 C 184.359375 -5.78125 184.726562 -4.765625 184.984375 -3.746094 C 185.109375 -3.257812 185.207031 -2.765625 185.28125 -2.273438 C 191.273438 -1.9375 197.273438 0.214844 202.597656 3.890625 C 208.199219 7.753906 213.070312 13.304688 216.414062 20.191406 C 219.300781 26.140625 220.703125 32.371094 220.753906 38.34375 C 220.796875 43.542969 219.816406 48.546875 217.902344 52.992188 C 218.441406 53.484375 218.945312 54.015625 219.414062 54.585938 C 220.171875 55.511719 220.84375 56.554688 221.398438 57.699219 L 221.410156 57.726562 C 223.199219 61.429688 223.40625 65.472656 222.289062 69.019531 C 221.160156 72.613281 218.671875 75.707031 215.105469 77.4375 L 215.058594 77.460938 C 211.507812 79.167969 207.5625 79.203125 204.058594 77.875 C 200.566406 76.554688 197.503906 73.882812 195.703125 70.167969 L 195.585938 69.921875 C 189.753906 70.152344 184.222656 67.796875 179.234375 63.707031 C 173.390625 58.917969 168.28125 51.71875 164.308594 43.542969 C 160.957031 36.636719 158.875 29.984375 158.421875 23.957031 C 158.027344 18.722656 158.851562 13.949219 161.117188 9.859375 Z M 162.828125 6.296875 L 163.21875 6.769531 C 164.039062 5.773438 164.96875 4.832031 166.007812 3.957031 C 167.585938 2.628906 169.40625 1.449219 171.488281 0.4375 C 172.535156 -0.0703125 173.605469 -0.503906 174.691406 -0.871094 C 173.585938 -2.398438 171.3125 -4.136719 167.125 -2.230469 C 166.210938 -1.8125 165.132812 -2.214844 164.714844 -3.128906 C 164.296875 -4.042969 164.699219 -5.121094 165.613281 -5.539062 C 173.34375 -9.066406 177.007812 -4.429688 178.375 -1.835938 C 179.433594 -2.035156 180.507812 -2.171875 181.585938 -2.246094 L 181.445312 -2.859375 C 181.246094 -3.648438 180.964844 -4.429688 180.59375 -5.191406 C 179.21875 -8.027344 176.886719 -10.070312 174.238281 -11.070312 C 171.621094 -12.0625 168.6875 -12.039062 166.0625 -10.761719 C 163.441406 -9.492188 161.613281 -7.203125 160.773438 -4.539062 C 159.921875 -1.832031 160.085938 1.265625 161.464844 4.109375 C 161.851562 4.90625 162.3125 5.640625 162.828125 6.296875 Z M 213.75 59.972656 C 214.953125 62.644531 216.375 68.425781 208.796875 72.335938 C 207.902344 72.796875 206.800781 72.445312 206.339844 71.550781 C 205.878906 70.65625 206.230469 69.554688 207.125 69.097656 C 210.699219 67.253906 211.183594 64.84375 210.90625 63.058594 C 208.925781 64.914062 206.664062 66.484375 204.140625 67.710938 C 202.957031 68.285156 201.773438 68.742188 200.59375 69.09375 C 200.203125 69.207031 199.8125 69.308594 199.421875 69.402344 C 200.828125 71.816406 202.953125 73.5625 205.34375 74.464844 C 207.921875 75.441406 210.8125 75.429688 213.410156 74.207031 L 213.628906 74.101562 C 216.1875 72.820312 217.980469 70.5625 218.808594 67.933594 C 219.648438 65.261719 219.5 62.207031 218.167969 59.394531 L 218.0625 59.175781 C 217.652344 58.351562 217.152344 57.589844 216.585938 56.894531 L 216.175781 56.421875 C 215.449219 57.664062 214.640625 58.851562 213.75 59.972656 Z M 213.75 59.972656 " fill-opacity="1" fill-rule="nonzero"/><path fill="#ffffff" d="M 175.1875 20.757812 C 175.707031 19.898438 176.828125 19.625 177.6875 20.144531 C 178.542969 20.664062 178.820312 21.78125 178.300781 22.640625 C 178.289062 22.660156 174.371094 28.757812 178.847656 38.179688 C 183.277344 47.511719 192.1875 47.925781 192.214844 47.925781 C 193.21875 47.988281 193.980469 48.855469 193.917969 49.859375 C 193.855469 50.863281 192.988281 51.628906 191.984375 51.566406 C 191.953125 51.5625 180.921875 51.046875 175.550781 39.734375 C 170.222656 28.515625 175.175781 20.78125 175.1875 20.757812 Z M 198.042969 25.289062 C 198.621094 24.46875 199.753906 24.265625 200.578125 24.839844 C 201.398438 25.417969 201.601562 26.550781 201.027344 27.375 C 201.011719 27.394531 195.855469 35.019531 189.6875 33.261719 C 188.71875 32.984375 188.15625 31.976562 188.429688 31.003906 C 188.707031 30.035156 189.714844 29.472656 190.6875 29.75 C 194.304688 30.78125 198.035156 25.304688 198.042969 25.289062 Z M 198.042969 25.289062 " fill-opacity="1" fill-rule="nonzero"/><path fill="#ffffff" d="M 171.453125 18.800781 C 170.988281 17.910156 171.332031 16.808594 172.222656 16.34375 C 173.113281 15.878906 174.214844 16.226562 174.675781 17.113281 C 174.683594 17.125 176.570312 20.867188 179.21875 20.519531 C 180.214844 20.390625 181.132812 21.09375 181.261719 22.089844 C 181.390625 23.085938 180.6875 24 179.691406 24.128906 C 174.464844 24.816406 171.460938 18.816406 171.453125 18.800781 Z M 171.453125 18.800781 " fill-opacity="1" fill-rule="nonzero"/><path fill="#ffffff" d="M 191.476562 45.921875 C 192.117188 45.152344 193.265625 45.046875 194.035156 45.6875 C 194.808594 46.332031 194.914062 47.476562 194.273438 48.25 C 194.269531 48.253906 192.988281 49.753906 194.703125 52.453125 C 195.242188 53.304688 194.992188 54.433594 194.140625 54.972656 C 193.289062 55.511719 192.160156 55.261719 191.621094 54.410156 C 188.472656 49.457031 191.46875 45.933594 191.476562 45.921875 Z M 191.476562 45.921875 " fill-opacity="1" fill-rule="nonzero"/><path fill="#ffffff" d="M 194.675781 16.367188 C 195.316406 17.6875 194.074219 19.617188 191.898438 20.675781 C 189.71875 21.730469 187.433594 21.515625 186.792969 20.195312 C 186.152344 18.875 187.394531 16.945312 189.574219 15.886719 C 191.75 14.832031 194.035156 15.046875 194.675781 16.367188 Z M 194.675781 16.367188 " fill-opacity="1" fill-rule="evenodd"/><path fill="#ffffff" d="M 206.359375 38.996094 C 207 40.316406 205.753906 42.242188 203.578125 43.300781 C 201.402344 44.359375 199.117188 44.144531 198.476562 42.824219 C 197.832031 41.5 199.078125 39.574219 201.253906 38.515625 C 203.433594 37.457031 205.71875 37.671875 206.359375 38.996094 Z M 206.359375 38.996094 " fill-opacity="1" fill-rule="evenodd"/><g clip-path="url(#9b438d7e8d)"><path fill="#ffffff" d="M 184.09375 -3.824219 C 183.457031 -3.042969 182.308594 -2.925781 181.53125 -3.558594 C 180.75 -4.195312 180.632812 -5.339844 181.265625 -6.121094 C 181.289062 -6.148438 189.089844 -16.121094 201.695312 -13.257812 C 211.390625 -11.054688 213.367188 -3.9375 213.746094 -0.4375 C 219.558594 -0.402344 236.886719 1.324219 237.65625 20.71875 C 237.992188 29.191406 235.484375 36.117188 233.324219 42.085938 C 230.199219 50.730469 227.890625 57.109375 238.394531 62.78125 C 239.28125 63.257812 239.613281 64.363281 239.136719 65.25 C 238.660156 66.136719 237.554688 66.46875 236.667969 65.992188 C 223.394531 58.828125 226.15625 51.191406 229.902344 40.84375 C 231.949219 35.1875 234.324219 28.621094 234.015625 20.863281 C 233.242188 1.40625 212.191406 3.253906 212.132812 3.257812 L 211.886719 3.257812 C 210.882812 3.199219 210.117188 2.335938 210.175781 1.332031 C 210.175781 1.308594 210.84375 -7.441406 200.894531 -9.703125 C 190.535156 -12.058594 184.109375 -3.847656 184.09375 -3.824219 Z M 184.09375 -3.824219 " fill-opacity="1" fill-rule="nonzero"/></g><path fill="#ffffff" d="M 25.691406 108.085938 C 26.703125 107.960938 42.941406 106.035156 42.707031 115.003906 C 42.421875 125.863281 24.769531 111.355469 24.71875 111.3125 C 23.9375 110.679688 23.820312 109.53125 24.453125 108.75 C 24.773438 108.359375 25.222656 108.132812 25.691406 108.085938 Z M 39.066406 114.917969 C 39.144531 111.976562 34.554688 111.394531 30.816406 111.410156 C 34.328125 113.976562 39.011719 117.003906 39.066406 114.917969 Z M 39.066406 114.917969 " fill-opacity="1" fill-rule="nonzero"/><path fill="#ffffff" d="M 26.964844 108.445312 C 27.003906 108.472656 40.433594 118.691406 36.820312 125.015625 C 36.019531 126.417969 34.902344 127.273438 33.625 127.597656 C 32.414062 127.90625 31.125 127.71875 29.882812 127.050781 C 28.808594 126.46875 27.761719 125.511719 26.863281 124.195312 C 24.863281 121.273438 23.46875 116.375 24.054688 109.742188 C 24.140625 108.742188 25.023438 108 26.023438 108.085938 C 26.378906 108.117188 26.699219 108.25 26.964844 108.445312 Z M 33.652344 123.207031 C 35.003906 120.839844 30.65625 116.398438 27.570312 113.675781 C 27.703125 117.5 28.640625 120.335938 29.875 122.140625 C 30.433594 122.957031 31.03125 123.523438 31.609375 123.835938 C 32.027344 124.0625 32.414062 124.136719 32.722656 124.058594 C 33.050781 123.976562 33.375 123.695312 33.652344 123.207031 Z M 33.652344 123.207031 " fill-opacity="1" fill-rule="nonzero"/><path fill="#ffffff" d="M 152.09375 181.273438 C 152.113281 181.226562 159.21875 165.328125 166.960938 170.417969 C 176.023438 176.367188 154.402344 183.734375 154.339844 183.757812 C 153.390625 184.082031 152.355469 183.578125 152.027344 182.628906 C 151.867188 182.167969 151.90625 181.6875 152.09375 181.273438 Z M 164.964844 173.457031 C 162.511719 171.847656 159.601562 175.441406 157.640625 178.628906 C 161.675781 177 166.71875 174.609375 164.964844 173.457031 Z M 164.964844 173.457031 " fill-opacity="1" fill-rule="nonzero"/><path fill="#ffffff" d="M 153.113281 180.332031 C 153.15625 180.3125 168.882812 174.261719 172.367188 180.691406 L 172.425781 180.800781 C 173.140625 182.183594 173.261719 183.542969 172.875 184.769531 L 172.839844 184.875 C 172.445312 186.023438 171.621094 186.984375 170.433594 187.664062 C 169.378906 188.269531 168.019531 188.648438 166.417969 188.722656 C 162.878906 188.882812 157.980469 187.484375 152.65625 183.492188 C 151.851562 182.890625 151.6875 181.75 152.289062 180.945312 C 152.507812 180.65625 152.796875 180.449219 153.113281 180.332031 Z M 169.15625 182.433594 C 167.871094 180.058594 161.808594 181.402344 157.863281 182.582031 C 161.175781 184.484375 164.078125 185.179688 166.261719 185.082031 C 167.246094 185.039062 168.042969 184.828125 168.621094 184.496094 C 169.011719 184.273438 169.273438 184.003906 169.378906 183.722656 L 169.394531 183.671875 C 169.488281 183.363281 169.433594 182.96875 169.199219 182.503906 Z M 169.15625 182.433594 " fill-opacity="1" fill-rule="nonzero"/><path stroke-linecap="butt" transform="matrix(0.589645, 0.462004, -0.462004, 0.589645, 116.52919, 60.78049)" fill="none" stroke-linejoin="miter" d="M 0.00125423 2.00098 L 44.154498 2.000065 " stroke="#ffd86e" stroke-width="4" stroke-opacity="1" stroke-miterlimit="4"/></svg>