<svg xmlns="http://www.w3.org/2000/svg" xmlns:xlink="http://www.w3.org/1999/xlink" width="95" zoomAndPan="magnify" viewBox="0 0 71.25 71.25" height="95" preserveAspectRatio="xMidYMid meet" version="1.0"><defs><clipPath id="996e00d51a"><path d="M 0 0 L 70.484375 0 L 70.484375 70.484375 L 0 70.484375 Z M 0 0 " clip-rule="nonzero"/></clipPath><clipPath id="70aed8b08e"><path d="M 35.242188 0 C 15.777344 0 0 15.777344 0 35.242188 C 0 54.707031 15.777344 70.484375 35.242188 70.484375 C 54.707031 70.484375 70.484375 54.707031 70.484375 35.242188 C 70.484375 15.777344 54.707031 0 35.242188 0 Z M 35.242188 0 " clip-rule="nonzero"/></clipPath><clipPath id="21d0affc71"><path d="M 0 0 L 70.484375 0 L 70.484375 70.484375 L 0 70.484375 Z M 0 0 " clip-rule="nonzero"/></clipPath><clipPath id="da6ca2fc5d"><path d="M 35.242188 0 C 15.777344 0 0 15.777344 0 35.242188 C 0 54.707031 15.777344 70.484375 35.242188 70.484375 C 54.707031 70.484375 70.484375 54.707031 70.484375 35.242188 C 70.484375 15.777344 54.707031 0 35.242188 0 Z M 35.242188 0 " clip-rule="nonzero"/></clipPath><clipPath id="152f6db3cd"><rect x="0" width="71" y="0" height="71"/></clipPath><clipPath id="98a3551b3e"><path d="M 36 40 L 48 40 L 48 65.742188 L 36 65.742188 Z M 36 40 " clip-rule="nonzero"/></clipPath><clipPath id="0298e9267b"><path d="M 12.265625 33 L 30 33 L 30 65 L 12.265625 65 Z M 12.265625 33 " clip-rule="nonzero"/></clipPath></defs><g clip-path="url(#996e00d51a)"><g clip-path="url(#70aed8b08e)"><g transform="matrix(1, 0, 0, 1, 0, -0.000000000000008569)"><g clip-path="url(#152f6db3cd)"><g clip-path="url(#21d0affc71)"><g clip-path="url(#da6ca2fc5d)"><path fill="#353763" d="M 0 0 L 70.484375 0 L 70.484375 70.484375 L 0 70.484375 Z M 0 0 " fill-opacity="1" fill-rule="nonzero"/></g></g></g></g></g></g><path fill="#e0b5eb" d="M 33.175781 22.179688 C 29.125 22.179688 25.53125 23.820312 23.292969 26.351562 C 22.941406 26.769531 21.617188 28.570312 22.378906 31.203125 C 23.042969 33.5 24.871094 34.078125 26.125 34.144531 C 26.433594 34.117188 26.753906 34.097656 27.078125 34.097656 C 27.121094 34.089844 27.164062 34.089844 27.207031 34.097656 C 29.332031 34.113281 31.660156 34.851562 33.632812 38.058594 C 38.777344 46.425781 46.824219 38.832031 45.457031 32.4375 C 44.09375 26.046875 39.960938 22.179688 33.175781 22.179688 Z M 33.175781 22.179688 " fill-opacity="1" fill-rule="evenodd"/><g clip-path="url(#98a3551b3e)"><path fill="#ffffff" d="M 41.429688 40.929688 C 41.414062 40.726562 41.570312 40.550781 41.773438 40.535156 C 41.976562 40.519531 42.152344 40.675781 42.167969 40.878906 L 43.765625 63.296875 L 46.929688 64.777344 C 47.113281 64.863281 47.191406 65.085938 47.105469 65.269531 C 47.042969 65.402344 46.910156 65.480469 46.769531 65.480469 L 46.769531 65.484375 L 37.222656 65.484375 C 37.015625 65.484375 36.851562 65.316406 36.851562 65.113281 L 37.683594 41.785156 C 37.691406 41.582031 37.863281 41.421875 38.066406 41.429688 C 38.269531 41.4375 38.429688 41.605469 38.421875 41.8125 L 37.605469 64.742188 L 45.109375 64.742188 L 43.277344 63.882812 C 43.148438 63.832031 43.050781 63.710938 43.042969 63.5625 Z M 41.429688 40.929688 " fill-opacity="1" fill-rule="nonzero"/></g><g clip-path="url(#0298e9267b)"><path fill="#ffffff" d="M 25.3125 34.074219 C 25.375 33.882812 25.585938 33.777344 25.78125 33.84375 C 25.972656 33.910156 26.078125 34.121094 26.011719 34.3125 L 17.480469 59.375 C 17.429688 59.523438 17.296875 59.617188 17.152344 59.628906 L 13.9375 60.03125 L 22.066406 63.878906 L 28.988281 34.324219 C 29.035156 34.125 29.234375 34 29.433594 34.046875 C 29.632812 34.09375 29.753906 34.292969 29.707031 34.492188 L 22.683594 64.496094 C 22.679688 64.519531 22.667969 64.546875 22.660156 64.570312 C 22.570312 64.753906 22.351562 64.832031 22.164062 64.746094 L 12.476562 60.15625 C 12.367188 60.105469 12.285156 60 12.269531 59.867188 C 12.242188 59.667969 12.386719 59.480469 12.589844 59.457031 L 16.855469 58.921875 Z M 25.3125 34.074219 " fill-opacity="1" fill-rule="nonzero"/></g><path fill="#ffffff" d="M 28.464844 22.847656 C 28.585938 23.011719 28.554688 23.246094 28.390625 23.367188 C 28.226562 23.488281 27.996094 23.457031 27.875 23.292969 L 20.128906 12.964844 C 20.101562 13.058594 20.042969 13.140625 19.953125 13.191406 C 19.777344 13.292969 19.550781 13.230469 19.449219 13.050781 C 19.449219 13.050781 19.09375 12.40625 18.574219 12.613281 C 18.324219 12.714844 18.160156 12.847656 18.0625 12.976562 C 18.046875 12.996094 18.035156 13.019531 18.023438 13.039062 C 18.136719 13.003906 18.253906 12.90625 18.253906 12.90625 C 18.417969 12.78125 18.648438 12.808594 18.773438 12.96875 C 18.824219 13.03125 18.847656 13.101562 18.851562 13.171875 C 18.867188 13.246094 18.976562 13.660156 19.722656 13.621094 C 19.925781 13.613281 20.097656 13.769531 20.109375 13.972656 C 20.121094 14.175781 19.964844 14.351562 19.757812 14.359375 C 18.910156 14.40625 18.496094 14.046875 18.296875 13.722656 C 18.109375 13.789062 17.882812 13.824219 17.652344 13.742188 C 17.542969 13.699219 17.453125 13.636719 17.386719 13.550781 L 17.363281 13.519531 C 17.265625 13.378906 17.230469 13.199219 17.261719 13.007812 C 17.285156 12.859375 17.355469 12.695312 17.46875 12.539062 C 17.636719 12.308594 17.910156 12.082031 18.300781 11.925781 C 18.695312 11.769531 19.03125 11.8125 19.300781 11.9375 C 18.578125 11.058594 17.558594 9.855469 17.460938 9.929688 C 17.277344 10.0625 17.867188 11.140625 17.867188 11.144531 C 17.964844 11.324219 17.898438 11.546875 17.722656 11.648438 C 17.582031 11.722656 17.414062 11.699219 17.300781 11.601562 C 17.148438 11.484375 15.980469 10.605469 15.648438 10.804688 C 15.546875 10.863281 17.039062 11.945312 17.042969 11.949219 C 17.207031 12.070312 17.242188 12.300781 17.125 12.464844 C 17.015625 12.613281 16.820312 12.660156 16.664062 12.582031 C 16.546875 12.535156 15.886719 12.296875 15.535156 12.472656 C 15.648438 12.554688 15.824219 12.652344 16.011719 12.753906 C 16.414062 12.976562 16.863281 13.226562 17.113281 13.574219 C 17.242188 13.753906 18.019531 15.0625 19.089844 16.882812 C 20.585938 19.425781 22.554688 22.796875 24.175781 25.578125 C 24.277344 25.753906 24.214844 25.980469 24.039062 26.085938 C 23.863281 26.1875 23.636719 26.125 23.535156 25.949219 C 21.851562 23.0625 19.847656 19.628906 18.453125 17.257812 C 17.394531 15.457031 16.628906 14.171875 16.507812 14 C 16.359375 13.792969 15.988281 13.589844 15.65625 13.402344 C 15.359375 13.242188 15.085938 13.089844 14.914062 12.910156 C 14.636719 12.621094 14.585938 12.328125 14.921875 12.003906 C 15.121094 11.816406 15.371094 11.730469 15.632812 11.699219 C 15.117188 11.164062 14.699219 10.511719 15.265625 10.171875 C 15.664062 9.929688 16.285156 10.140625 16.808594 10.414062 C 16.714844 9.992188 16.71875 9.554688 17.023438 9.332031 C 17.722656 8.816406 20.398438 12.113281 20.589844 12.351562 Z M 28.464844 22.847656 " fill-opacity="1" fill-rule="nonzero"/><path fill="#ffffff" d="M 45.175781 32.585938 C 45.027344 32.445312 45.023438 32.210938 45.160156 32.0625 C 45.300781 31.914062 45.535156 31.90625 45.683594 32.046875 C 45.964844 32.308594 46.253906 32.523438 46.542969 32.667969 C 46.789062 32.789062 47.039062 32.855469 47.289062 32.855469 C 48.210938 32.855469 48.777344 30.542969 49.394531 28.019531 C 50.175781 24.832031 51.035156 21.339844 53.191406 21.023438 C 55.121094 20.742188 56.453125 20.796875 57.109375 20.988281 C 57.34375 21.054688 57.519531 21.144531 57.632812 21.253906 L 57.636719 21.261719 C 57.835938 21.453125 57.871094 21.675781 57.742188 21.910156 C 57.652344 22.074219 57.464844 22.21875 57.171875 22.339844 L 57.097656 22.367188 C 57.402344 22.488281 57.675781 22.664062 57.765625 22.898438 C 57.898438 23.242188 57.660156 23.46875 57.320312 23.621094 C 57.566406 23.761719 57.773438 23.941406 57.84375 24.164062 C 58.136719 25.085938 55.34375 25.039062 54.78125 25.019531 C 54.621094 25.117188 54.207031 25.464844 54.085938 26.476562 C 53.730469 29.453125 52.566406 34.742188 50.40625 37.980469 C 49.792969 38.894531 49.097656 39.652344 48.316406 40.152344 C 47.507812 40.675781 46.613281 40.925781 45.625 40.808594 C 44.867188 40.71875 44.0625 40.410156 43.210938 39.839844 C 43.042969 39.726562 42.996094 39.496094 43.109375 39.324219 C 43.222656 39.15625 43.453125 39.109375 43.621094 39.226562 C 44.371094 39.726562 45.066406 39.996094 45.710938 40.070312 C 46.515625 40.167969 47.25 39.960938 47.917969 39.53125 C 48.609375 39.085938 49.234375 38.402344 49.789062 37.566406 C 51.875 34.449219 53.003906 29.296875 53.351562 26.390625 C 53.535156 24.84375 54.386719 24.382812 54.535156 24.316406 C 54.589844 24.289062 54.652344 24.273438 54.714844 24.277344 C 54.722656 24.277344 57.140625 24.394531 57.136719 24.390625 C 57.050781 24.113281 56.039062 23.929688 55.902344 23.90625 C 55.726562 23.886719 55.585938 23.742188 55.574219 23.558594 C 55.566406 23.355469 55.722656 23.179688 55.925781 23.167969 C 55.929688 23.167969 57.097656 23.222656 57.078125 23.164062 C 57.003906 22.984375 56.117188 22.851562 55.929688 22.828125 L 55.820312 22.824219 C 55.785156 22.960938 55.746094 23.074219 55.703125 23.164062 C 55.578125 23.414062 55.410156 23.546875 55.210938 23.589844 C 55.015625 23.632812 54.828125 23.582031 54.652344 23.472656 C 54.472656 23.359375 54.296875 23.179688 54.148438 22.988281 C 53.933594 23.027344 53.621094 23.027344 53.199219 22.910156 C 53.003906 22.855469 52.886719 22.652344 52.945312 22.453125 C 53 22.257812 53.203125 22.140625 53.398438 22.199219 C 53.890625 22.335938 54.03125 22.292969 54.054688 22.28125 L 54.089844 22.253906 C 54.257812 22.140625 54.488281 22.183594 54.605469 22.355469 C 54.730469 22.542969 54.894531 22.75 55.039062 22.84375 L 55.039062 22.839844 C 55.132812 22.652344 55.191406 22.273438 55.195312 21.617188 L 55.199219 21.574219 C 54.664062 21.59375 54.027344 21.652344 53.296875 21.757812 C 51.632812 22 50.839844 25.238281 50.113281 28.195312 C 49.421875 31.015625 48.789062 33.597656 47.289062 33.597656 C 46.925781 33.597656 46.566406 33.5 46.21875 33.332031 C 45.855469 33.152344 45.507812 32.894531 45.175781 32.585938 Z M 56.828125 21.679688 C 56.609375 21.625 56.308594 21.585938 55.929688 21.574219 L 55.933594 21.621094 C 55.933594 21.789062 55.929688 21.949219 55.921875 22.089844 C 56.148438 21.972656 56.445312 21.835938 56.828125 21.679688 Z M 55.050781 22.867188 C 55.0625 22.867188 55.054688 22.867188 55.046875 22.863281 C 55.046875 22.867188 55.042969 22.871094 55.050781 22.867188 Z M 55.050781 22.867188 " fill-opacity="1" fill-rule="nonzero"/><path fill="#ffffff" d="M 31.492188 19.964844 L 31.507812 19.988281 C 32.050781 20.683594 32.847656 21.148438 33.832031 21.40625 C 34.925781 21.695312 36.246094 21.730469 37.707031 21.554688 C 39.4375 21.347656 41.054688 20.878906 42.265625 20.132812 C 43.300781 19.496094 44.035156 18.660156 44.277344 17.613281 L 44.28125 17.601562 C 44.324219 17.40625 44.351562 17.199219 44.363281 16.988281 C 44.371094 16.78125 44.363281 16.566406 44.335938 16.335938 C 44.273438 15.8125 44.128906 15.316406 43.914062 14.859375 C 43.875 14.773438 43.832031 14.695312 43.789062 14.613281 C 43.714844 14.566406 43.660156 14.488281 43.636719 14.398438 C 43.628906 14.375 43.625 14.351562 43.625 14.328125 C 43.449219 14.050781 43.25 13.789062 43.023438 13.542969 C 42.972656 13.484375 42.917969 13.429688 42.863281 13.371094 L 42.832031 13.34375 C 42.152344 12.671875 41.285156 12.148438 40.300781 11.816406 C 39.253906 11.464844 38.074219 11.332031 36.851562 11.480469 C 35.441406 11.648438 34.171875 12.167969 33.160156 12.914062 C 32.125 13.671875 31.355469 14.675781 30.972656 15.785156 C 30.851562 16.140625 30.765625 16.503906 30.726562 16.871094 C 30.6875 17.230469 30.6875 17.597656 30.734375 17.972656 C 30.78125 18.378906 30.871094 18.746094 31 19.078125 C 31.125 19.40625 31.289062 19.703125 31.492188 19.964844 Z M 31.117188 20.671875 C 31.011719 20.722656 30.902344 20.769531 30.789062 20.808594 C 30.578125 20.878906 30.355469 20.933594 30.125 20.960938 L 30.121094 20.960938 C 29.292969 21.058594 28.5 20.828125 27.890625 20.378906 C 27.277344 19.921875 26.847656 19.242188 26.753906 18.441406 C 26.65625 17.644531 26.910156 16.882812 27.402344 16.292969 C 27.882812 15.714844 28.589844 15.308594 29.414062 15.203125 L 29.449219 15.199219 C 29.667969 15.175781 29.878906 15.171875 30.085938 15.1875 C 30.1875 15.199219 30.289062 15.210938 30.390625 15.230469 C 30.851562 14.101562 31.664062 13.09375 32.722656 12.316406 C 33.835938 11.496094 35.222656 10.929688 36.765625 10.746094 C 38.097656 10.585938 39.386719 10.730469 40.535156 11.113281 C 41.539062 11.453125 42.433594 11.972656 43.160156 12.632812 C 43.289062 12.5625 43.425781 12.5 43.566406 12.449219 C 43.796875 12.363281 44.039062 12.304688 44.292969 12.273438 C 45.125 12.175781 45.917969 12.402344 46.527344 12.855469 C 47.140625 13.308594 47.570312 13.992188 47.667969 14.789062 C 47.761719 15.589844 47.507812 16.351562 47.015625 16.941406 C 46.53125 17.523438 45.816406 17.933594 44.984375 18.03125 L 44.929688 18.039062 C 44.585938 19.175781 43.769531 20.078125 42.652344 20.765625 C 41.347656 21.570312 39.625 22.070312 37.792969 22.292969 C 36.246094 22.476562 34.832031 22.433594 33.644531 22.121094 C 32.613281 21.851562 31.75 21.378906 31.117188 20.671875 Z M 30.546875 20.105469 L 30.664062 20.0625 C 30.527344 19.839844 30.410156 19.601562 30.308594 19.34375 C 30.15625 18.953125 30.050781 18.523438 29.996094 18.058594 C 29.96875 17.824219 29.957031 17.589844 29.957031 17.355469 C 29.589844 17.464844 29.105469 17.789062 29.195312 18.71875 C 29.214844 18.921875 29.066406 19.101562 28.863281 19.121094 C 28.660156 19.140625 28.480469 18.992188 28.460938 18.789062 C 28.296875 17.070312 29.429688 16.675781 30.015625 16.585938 C 30.050781 16.367188 30.09375 16.152344 30.148438 15.941406 L 30.027344 15.929688 C 29.863281 15.914062 29.695312 15.917969 29.523438 15.9375 L 29.519531 15.9375 C 28.882812 16.011719 28.335938 16.324219 27.96875 16.765625 C 27.609375 17.199219 27.421875 17.753906 27.484375 18.339844 L 27.488281 18.371094 C 27.5625 18.953125 27.878906 19.449219 28.332031 19.785156 C 28.789062 20.125 29.386719 20.296875 30.019531 20.226562 L 30.054688 20.222656 C 30.222656 20.199219 30.390625 20.160156 30.546875 20.105469 Z M 44.222656 13.890625 C 44.8125 13.839844 46.019531 13.945312 46.269531 15.664062 C 46.296875 15.867188 46.15625 16.054688 45.953125 16.082031 C 45.75 16.113281 45.5625 15.972656 45.535156 15.769531 C 45.417969 14.964844 44.988281 14.710938 44.628906 14.644531 C 44.851562 15.148438 45.003906 15.6875 45.074219 16.25 C 45.105469 16.511719 45.113281 16.769531 45.101562 17.019531 C 45.097656 17.105469 45.089844 17.1875 45.082031 17.269531 C 45.640625 17.15625 46.117188 16.867188 46.449219 16.46875 C 46.8125 16.03125 47 15.46875 46.929688 14.878906 C 46.859375 14.289062 46.542969 13.785156 46.085938 13.449219 C 45.625 13.105469 45.019531 12.933594 44.382812 13.011719 C 44.183594 13.035156 43.996094 13.078125 43.820312 13.144531 L 43.703125 13.191406 C 43.894531 13.414062 44.066406 13.648438 44.222656 13.890625 Z M 44.222656 13.890625 " fill-opacity="1" fill-rule="nonzero"/><path fill="#ffffff" d="M 34.136719 18.6875 C 34.011719 18.527344 34.035156 18.296875 34.195312 18.167969 C 34.355469 18.042969 34.585938 18.066406 34.714844 18.226562 C 34.714844 18.230469 35.625 19.382812 37.726562 19.148438 C 39.8125 18.914062 40.480469 17.234375 40.484375 17.226562 C 40.5625 17.039062 40.777344 16.949219 40.96875 17.027344 C 41.15625 17.105469 41.246094 17.324219 41.167969 17.511719 C 41.164062 17.519531 40.335938 19.601562 37.808594 19.882812 C 35.300781 20.160156 34.140625 18.691406 34.136719 18.6875 Z M 36.527344 14.609375 C 36.40625 14.445312 36.441406 14.214844 36.605469 14.09375 C 36.773438 13.972656 37.003906 14.007812 37.125 14.171875 C 37.128906 14.175781 38.246094 15.671875 37.5 16.738281 C 37.382812 16.90625 37.152344 16.949219 36.988281 16.832031 C 36.820312 16.714844 36.777344 16.484375 36.894531 16.316406 C 37.332031 15.691406 36.53125 14.613281 36.527344 14.609375 Z M 36.527344 14.609375 " fill-opacity="1" fill-rule="nonzero"/><path fill="#ffffff" d="M 33.519531 19.28125 C 33.320312 19.3125 33.128906 19.175781 33.097656 18.972656 C 33.066406 18.773438 33.203125 18.582031 33.40625 18.550781 C 33.40625 18.550781 34.253906 18.433594 34.363281 17.90625 C 34.402344 17.707031 34.597656 17.574219 34.800781 17.617188 C 35 17.65625 35.128906 17.851562 35.085938 18.054688 C 34.871094 19.101562 33.523438 19.28125 33.519531 19.28125 Z M 33.519531 19.28125 " fill-opacity="1" fill-rule="nonzero"/><path fill="#ffffff" d="M 40.050781 17.238281 C 39.945312 17.066406 40 16.835938 40.171875 16.730469 C 40.347656 16.621094 40.574219 16.675781 40.683594 16.851562 C 40.683594 16.851562 40.886719 17.199219 41.519531 17.050781 C 41.71875 17.003906 41.917969 17.125 41.964844 17.324219 C 42.011719 17.523438 41.886719 17.722656 41.6875 17.769531 C 40.53125 18.046875 40.050781 17.242188 40.050781 17.238281 Z M 40.050781 17.238281 " fill-opacity="1" fill-rule="nonzero"/><path fill="#ffffff" d="M 34.589844 14.664062 C 34.886719 14.628906 35.175781 14.992188 35.234375 15.480469 C 35.292969 15.96875 35.097656 16.394531 34.804688 16.429688 C 34.507812 16.464844 34.21875 16.097656 34.160156 15.609375 C 34.101562 15.121094 34.296875 14.699219 34.589844 14.664062 Z M 34.589844 14.664062 " fill-opacity="1" fill-rule="evenodd"/><path fill="#ffffff" d="M 39.707031 13.921875 C 40.003906 13.886719 40.292969 14.253906 40.351562 14.738281 C 40.410156 15.226562 40.214844 15.652344 39.917969 15.6875 C 39.625 15.722656 39.335938 15.355469 39.277344 14.867188 C 39.21875 14.382812 39.410156 13.957031 39.707031 13.921875 Z M 39.707031 13.921875 " fill-opacity="1" fill-rule="evenodd"/><path fill="#ffffff" d="M 30.835938 14.796875 C 30.84375 14.796875 34.203125 14.957031 35.464844 12.078125 L 35.640625 11.679688 L 36.003906 11.910156 C 36.011719 11.917969 38.527344 13.578125 41.761719 11.847656 L 42.109375 12.5 C 39.242188 14.03125 36.847656 13.167969 35.96875 12.738281 C 34.390625 15.707031 30.820312 15.535156 30.808594 15.535156 Z M 30.835938 14.796875 " fill-opacity="1" fill-rule="nonzero"/></svg>