<svg xmlns="http://www.w3.org/2000/svg" xmlns:xlink="http://www.w3.org/1999/xlink" width="95" zoomAndPan="magnify" viewBox="0 0 71.25 71.25" height="95" preserveAspectRatio="xMidYMid meet" version="1.0"><defs><clipPath id="4ab63ad0fa"><path d="M 0 0 L 70.484375 0 L 70.484375 70.484375 L 0 70.484375 Z M 0 0 " clip-rule="nonzero"/></clipPath><clipPath id="f8f68872fc"><path d="M 35.242188 0 C 15.777344 0 0 15.777344 0 35.242188 C 0 54.707031 15.777344 70.484375 35.242188 70.484375 C 54.707031 70.484375 70.484375 54.707031 70.484375 35.242188 C 70.484375 15.777344 54.707031 0 35.242188 0 Z M 35.242188 0 " clip-rule="nonzero"/></clipPath><clipPath id="41a8a25cda"><path d="M 0 0 L 70.484375 0 L 70.484375 70.484375 L 0 70.484375 Z M 0 0 " clip-rule="nonzero"/></clipPath><clipPath id="230cf8369f"><path d="M 35.242188 0 C 15.777344 0 0 15.777344 0 35.242188 C 0 54.707031 15.777344 70.484375 35.242188 70.484375 C 54.707031 70.484375 70.484375 54.707031 70.484375 35.242188 C 70.484375 15.777344 54.707031 0 35.242188 0 Z M 35.242188 0 " clip-rule="nonzero"/></clipPath><clipPath id="ce9af615d9"><rect x="0" width="71" y="0" height="71"/></clipPath><clipPath id="383c2c46fd"><path d="M 22 7.058594 L 46 7.058594 L 46 20 L 22 20 Z M 22 7.058594 " clip-rule="nonzero"/></clipPath><clipPath id="f71b3e93f9"><path d="M 20 45 L 33 45 L 33 66.433594 L 20 66.433594 Z M 20 45 " clip-rule="nonzero"/></clipPath><clipPath id="17000a2a52"><path d="M 8 15 L 61.394531 15 L 61.394531 38 L 8 38 Z M 8 15 " clip-rule="nonzero"/></clipPath><clipPath id="f567d366f8"><path d="M 7.214844 31 L 16 31 L 16 40 L 7.214844 40 Z M 7.214844 31 " clip-rule="nonzero"/></clipPath></defs><g clip-path="url(#4ab63ad0fa)"><g clip-path="url(#f8f68872fc)"><g transform="matrix(1, 0, 0, 1, -0, -0.000000000000008569)"><g clip-path="url(#ce9af615d9)"><g clip-path="url(#41a8a25cda)"><g clip-path="url(#230cf8369f)"><path fill="#353763" d="M 0 0 L 70.484375 0 L 70.484375 70.484375 L 0 70.484375 Z M 0 0 " fill-opacity="1" fill-rule="nonzero"/></g></g></g></g></g></g><g clip-path="url(#383c2c46fd)"><path fill="#ffffff" d="M 27.238281 16.585938 L 27.257812 16.625 C 27.761719 17.460938 28.582031 18.074219 29.632812 18.492188 C 30.800781 18.953125 32.253906 19.167969 33.882812 19.167969 C 35.824219 19.167969 37.667969 18.867188 39.101562 18.203125 C 40.328125 17.636719 41.25 16.808594 41.65625 15.679688 C 41.730469 15.464844 41.789062 15.242188 41.828125 15.011719 C 41.867188 14.789062 41.886719 14.546875 41.886719 14.289062 C 41.886719 13.707031 41.792969 13.140625 41.613281 12.601562 C 41.582031 12.507812 41.546875 12.410156 41.511719 12.316406 C 41.4375 12.253906 41.386719 12.167969 41.371094 12.0625 C 41.367188 12.035156 41.363281 12.007812 41.367188 11.980469 C 41.210938 11.648438 41.023438 11.335938 40.808594 11.035156 C 40.757812 10.960938 40.703125 10.890625 40.648438 10.816406 L 40.632812 10.800781 C 39.972656 9.964844 39.082031 9.269531 38.035156 8.773438 C 36.929688 8.246094 35.644531 7.945312 34.277344 7.945312 C 32.695312 7.945312 31.230469 8.34375 30.015625 9.035156 C 28.769531 9.738281 27.789062 10.738281 27.21875 11.914062 C 27.039062 12.285156 26.898438 12.675781 26.804688 13.078125 L 26.78125 13.199219 C 26.707031 13.550781 26.667969 13.917969 26.667969 14.289062 C 26.667969 14.746094 26.71875 15.164062 26.816406 15.546875 C 26.914062 15.929688 27.054688 16.277344 27.238281 16.585938 Z M 26.734375 17.320312 C 26.609375 17.363281 26.484375 17.398438 26.351562 17.429688 C 26.109375 17.480469 25.859375 17.507812 25.601562 17.507812 C 24.671875 17.507812 23.828125 17.148438 23.214844 16.574219 C 22.597656 15.988281 22.214844 15.179688 22.214844 14.285156 C 22.214844 13.394531 22.597656 12.585938 23.214844 12 C 23.828125 11.421875 24.671875 11.066406 25.601562 11.066406 C 25.847656 11.066406 26.089844 11.089844 26.324219 11.140625 L 26.34375 11.144531 C 26.449219 11.164062 26.550781 11.191406 26.652344 11.226562 C 27.3125 10.042969 28.339844 9.039062 29.609375 8.320312 C 30.945312 7.5625 32.550781 7.121094 34.277344 7.121094 C 35.769531 7.121094 37.171875 7.449219 38.386719 8.027344 C 39.445312 8.53125 40.363281 9.222656 41.078125 10.050781 C 41.230469 9.992188 41.390625 9.941406 41.550781 9.902344 C 41.820312 9.839844 42.097656 9.804688 42.378906 9.804688 C 43.308594 9.804688 44.152344 10.160156 44.761719 10.738281 C 45.382812 11.324219 45.765625 12.132812 45.765625 13.023438 C 45.765625 13.917969 45.382812 14.726562 44.761719 15.3125 C 44.152344 15.890625 43.308594 16.246094 42.378906 16.246094 L 42.316406 16.246094 C 41.789062 17.453125 40.765625 18.34375 39.445312 18.949219 C 37.894531 19.664062 35.933594 19.992188 33.882812 19.992188 C 32.152344 19.992188 30.597656 19.757812 29.328125 19.257812 C 28.230469 18.824219 27.34375 18.183594 26.734375 17.320312 Z M 26.179688 16.625 L 26.316406 16.589844 C 26.191406 16.324219 26.09375 16.042969 26.015625 15.746094 C 25.902344 15.296875 25.84375 14.8125 25.84375 14.292969 C 25.84375 14.027344 25.859375 13.769531 25.894531 13.511719 C 25.476562 13.585938 24.898438 13.875 24.875 14.910156 C 24.871094 15.136719 24.679688 15.316406 24.453125 15.3125 C 24.226562 15.308594 24.046875 15.121094 24.054688 14.894531 C 24.101562 12.976562 25.398438 12.691406 26.0625 12.667969 C 26.125 12.433594 26.203125 12.203125 26.292969 11.976562 L 26.160156 11.945312 C 25.984375 11.910156 25.796875 11.890625 25.601562 11.890625 C 24.890625 11.890625 24.246094 12.160156 23.78125 12.597656 C 23.324219 13.03125 23.039062 13.628906 23.039062 14.285156 C 23.039062 14.945312 23.324219 15.542969 23.78125 15.972656 C 24.246094 16.414062 24.890625 16.683594 25.601562 16.683594 C 25.800781 16.683594 25.996094 16.664062 26.179688 16.625 Z M 42.085938 11.578125 C 42.746094 11.597656 44.058594 11.878906 44.105469 13.804688 C 44.109375 14.03125 43.929688 14.21875 43.703125 14.222656 C 43.476562 14.230469 43.289062 14.050781 43.285156 13.824219 C 43.261719 12.917969 42.824219 12.582031 42.433594 12.464844 C 42.613281 13.046875 42.710938 13.660156 42.710938 14.292969 C 42.710938 14.585938 42.6875 14.871094 42.640625 15.148438 C 42.625 15.238281 42.609375 15.328125 42.589844 15.414062 C 43.21875 15.367188 43.78125 15.109375 44.199219 14.714844 C 44.65625 14.28125 44.941406 13.683594 44.941406 13.027344 C 44.941406 12.367188 44.65625 11.769531 44.199219 11.339844 C 43.734375 10.898438 43.089844 10.628906 42.378906 10.628906 C 42.152344 10.628906 41.941406 10.652344 41.742188 10.699219 L 41.601562 10.738281 C 41.785156 11.007812 41.945312 11.289062 42.085938 11.578125 Z M 42.085938 11.578125 " fill-opacity="1" fill-rule="nonzero"/></g><path fill="#ffffff" d="M 30.332031 15.539062 C 30.207031 15.347656 30.265625 15.09375 30.457031 14.972656 C 30.648438 14.851562 30.902344 14.90625 31.023438 15.097656 C 31.023438 15.101562 31.875 16.496094 34.226562 16.515625 C 36.554688 16.535156 37.515625 14.769531 37.519531 14.765625 C 37.632812 14.566406 37.882812 14.496094 38.078125 14.605469 C 38.277344 14.71875 38.347656 14.96875 38.238281 15.167969 C 38.234375 15.171875 37.042969 17.359375 34.21875 17.335938 C 31.414062 17.3125 30.332031 15.542969 30.332031 15.539062 Z M 33.503906 11.351562 C 33.390625 11.152344 33.460938 10.902344 33.660156 10.792969 C 33.859375 10.679688 34.109375 10.75 34.21875 10.949219 C 34.222656 10.953125 35.261719 12.75 34.296875 13.832031 C 34.144531 14 33.886719 14.011719 33.714844 13.863281 C 33.546875 13.710938 33.53125 13.453125 33.683594 13.28125 C 34.25 12.652344 33.503906 11.355469 33.503906 11.351562 Z M 33.503906 11.351562 " fill-opacity="1" fill-rule="nonzero"/><path fill="#ffffff" d="M 29.570312 16.105469 C 29.34375 16.113281 29.152344 15.9375 29.144531 15.710938 C 29.136719 15.484375 29.3125 15.292969 29.539062 15.285156 C 29.542969 15.285156 30.492188 15.269531 30.679688 14.699219 C 30.753906 14.484375 30.984375 14.367188 31.199219 14.441406 C 31.414062 14.511719 31.53125 14.742188 31.460938 14.957031 C 31.082031 16.089844 29.574219 16.105469 29.570312 16.105469 Z M 29.570312 16.105469 " fill-opacity="1" fill-rule="nonzero"/><path fill="#ffffff" d="M 37.039062 14.707031 C 36.949219 14.5 37.046875 14.257812 37.253906 14.167969 C 37.464844 14.078125 37.703125 14.175781 37.792969 14.386719 C 37.792969 14.386719 37.96875 14.785156 38.683594 14.703125 C 38.910156 14.679688 39.113281 14.839844 39.140625 15.066406 C 39.164062 15.292969 39.003906 15.496094 38.777344 15.519531 C 37.460938 15.671875 37.039062 14.710938 37.039062 14.707031 Z M 37.039062 14.707031 " fill-opacity="1" fill-rule="nonzero"/><path fill="#ffffff" d="M 25.976562 30.625 C 26.007812 30.402344 26.214844 30.242188 26.441406 30.273438 C 26.664062 30.304688 26.820312 30.515625 26.789062 30.738281 L 24.734375 45.621094 L 33.832031 45.472656 L 34.304688 35.890625 C 34.316406 35.664062 34.507812 35.488281 34.734375 35.5 C 34.910156 35.507812 35.054688 35.625 35.105469 35.785156 L 39.136719 46.613281 L 48.421875 44.289062 L 42.675781 32.246094 C 42.578125 32.042969 42.664062 31.796875 42.871094 31.699219 C 43.074219 31.601562 43.320312 31.6875 43.417969 31.894531 L 49.382812 44.390625 C 49.390625 44.414062 49.402344 44.441406 49.410156 44.46875 C 49.464844 44.6875 49.328125 44.910156 49.109375 44.96875 L 38.980469 47.5 C 38.78125 47.546875 38.570312 47.441406 38.496094 47.242188 L 35.027344 37.925781 L 34.636719 45.894531 C 34.625 46.109375 34.449219 46.28125 34.230469 46.285156 L 24.289062 46.449219 C 24.261719 46.449219 24.234375 46.449219 24.203125 46.445312 C 23.980469 46.414062 23.820312 46.207031 23.851562 45.980469 Z M 25.976562 30.625 " fill-opacity="1" fill-rule="nonzero"/><g clip-path="url(#f71b3e93f9)"><path fill="#ffffff" d="M 25.855469 45.972656 C 25.875 45.746094 26.074219 45.578125 26.300781 45.59375 C 26.527344 45.613281 26.695312 45.8125 26.675781 46.039062 L 25.324219 62.445312 C 25.316406 62.574219 25.25 62.679688 25.152344 62.75 L 22.132812 65.1875 L 30.425781 64.652344 L 31.746094 45.882812 C 31.761719 45.65625 31.957031 45.484375 32.183594 45.5 C 32.410156 45.511719 32.582031 45.710938 32.566406 45.9375 L 31.21875 65.066406 C 31.207031 65.269531 31.042969 65.4375 30.835938 65.449219 L 20.890625 66.089844 C 20.761719 66.097656 20.632812 66.046875 20.546875 65.9375 C 20.402344 65.761719 20.429688 65.5 20.609375 65.359375 L 24.519531 62.203125 Z M 25.855469 45.972656 " fill-opacity="1" fill-rule="nonzero"/></g><path fill="#ffffff" d="M 40.683594 46.734375 C 40.585938 46.53125 40.667969 46.285156 40.875 46.1875 C 41.078125 46.089844 41.324219 46.175781 41.421875 46.378906 L 49.191406 62.515625 L 56.878906 56.925781 L 53.226562 57.078125 C 53.0625 57.082031 52.914062 56.992188 52.84375 56.855469 L 46.441406 45.320312 C 46.332031 45.121094 46.402344 44.871094 46.601562 44.761719 C 46.796875 44.652344 47.050781 44.722656 47.160156 44.921875 L 53.445312 56.246094 L 58.179688 56.046875 C 58.320312 56.035156 58.464844 56.09375 58.554688 56.214844 C 58.6875 56.398438 58.644531 56.65625 58.460938 56.789062 L 49.277344 63.472656 C 49.257812 63.484375 49.234375 63.496094 49.210938 63.507812 C 49.007812 63.605469 48.761719 63.519531 48.664062 63.316406 Z M 40.683594 46.734375 " fill-opacity="1" fill-rule="nonzero"/><path fill="#ffffff" d="M 31.359375 11.15625 C 31.691406 11.15625 31.960938 11.597656 31.960938 12.144531 C 31.960938 12.6875 31.691406 13.132812 31.359375 13.132812 C 31.03125 13.132812 30.761719 12.6875 30.761719 12.144531 C 30.761719 11.597656 31.03125 11.15625 31.359375 11.15625 Z M 31.359375 11.15625 " fill-opacity="1" fill-rule="evenodd"/><path fill="#ffffff" d="M 37.101562 11.011719 C 37.433594 11.011719 37.703125 11.457031 37.703125 12 C 37.703125 12.546875 37.433594 12.988281 37.101562 12.988281 C 36.769531 12.988281 36.503906 12.546875 36.503906 12 C 36.503906 11.457031 36.769531 11.011719 37.101562 11.011719 Z M 37.101562 11.011719 " fill-opacity="1" fill-rule="evenodd"/><g clip-path="url(#17000a2a52)"><path fill="#fc7837" d="M 8.132812 31.355469 C 8.160156 31.316406 17.796875 17.273438 36.5 22.335938 C 39.664062 23.191406 42.265625 23.554688 44.355469 23.5 C 46.335938 23.445312 47.773438 23.027344 48.730469 22.320312 C 49.507812 21.746094 50.039062 20.851562 50.347656 19.714844 C 50.621094 18.695312 50.738281 17.539062 50.703125 16.277344 L 61.253906 15.988281 C 61.320312 18.320312 61.097656 20.488281 60.566406 22.449219 C 59.636719 25.890625 57.808594 28.757812 54.980469 30.84375 C 52.332031 32.792969 48.910156 33.933594 44.644531 34.050781 C 41.5 34.136719 37.882812 33.671875 33.769531 32.558594 C 22.234375 29.433594 16.796875 37.375 16.78125 37.398438 Z M 8.132812 31.355469 " fill-opacity="1" fill-rule="nonzero"/></g><path fill="#ffffff" d="M 53.097656 15.855469 C 53.277344 15.996094 53.304688 16.257812 53.164062 16.433594 C 53.023438 16.613281 52.765625 16.640625 52.585938 16.5 C 52.582031 16.496094 49.988281 14.445312 51.101562 13.726562 C 51.601562 13.402344 52.523438 13.585938 53.164062 13.78125 C 53.003906 12.828125 52.863281 11.261719 53.601562 11.097656 C 54.042969 10.996094 54.492188 11.480469 54.859375 12.058594 C 54.925781 11.371094 55.113281 10.753906 55.578125 10.742188 C 55.953125 10.730469 56.347656 11.230469 56.683594 11.820312 C 56.726562 11.445312 56.804688 11.160156 56.90625 10.957031 C 57.101562 10.574219 57.390625 10.410156 57.742188 10.457031 C 58.011719 10.492188 58.289062 10.675781 58.558594 10.996094 C 59.199219 11.757812 59.953125 13.476562 60.507812 15.929688 C 60.554688 16.152344 60.417969 16.371094 60.195312 16.421875 C 59.972656 16.46875 59.753906 16.332031 59.703125 16.109375 C 59.179688 13.789062 58.5 12.199219 57.929688 11.527344 C 57.796875 11.367188 57.695312 11.28125 57.632812 11.273438 C 57.617188 11.269531 57.65625 11.296875 57.640625 11.332031 C 57.464844 11.671875 57.402344 12.441406 57.519531 13.707031 C 57.546875 13.894531 57.4375 14.082031 57.25 14.148438 C 57.035156 14.222656 56.800781 14.109375 56.726562 13.894531 C 56.722656 13.890625 55.898438 11.554688 55.597656 11.5625 C 55.460938 11.566406 55.707031 13.84375 55.707031 13.847656 C 55.726562 14.027344 55.625 14.207031 55.445312 14.273438 C 55.234375 14.355469 54.996094 14.25 54.917969 14.039062 C 54.914062 14.03125 54.082031 11.828125 53.78125 11.898438 C 53.535156 11.949219 54.0625 14.144531 54.101562 14.300781 C 54.125 14.386719 54.121094 14.480469 54.085938 14.566406 C 54 14.777344 53.757812 14.875 53.546875 14.789062 C 53.542969 14.789062 51.992188 14.128906 51.546875 14.414062 C 51.402344 14.507812 53.09375 15.851562 53.097656 15.855469 Z M 53.097656 15.855469 " fill-opacity="1" fill-rule="nonzero"/><g clip-path="url(#f567d366f8)"><path fill="#ffffff" d="M 14.507812 36.367188 C 14.457031 36.148438 14.59375 35.925781 14.816406 35.875 C 15.039062 35.824219 15.257812 35.960938 15.308594 36.179688 C 15.3125 36.191406 16.113281 39.394531 14.78125 39.28125 C 14.191406 39.230469 13.574219 38.515625 13.1875 37.96875 C 12.726562 38.820312 11.875 40.144531 11.191406 39.824219 C 10.789062 39.632812 10.730469 38.976562 10.796875 38.292969 C 10.320312 38.796875 9.792969 39.167969 9.414062 38.894531 C 9.113281 38.671875 9.105469 38.035156 9.199219 37.367188 C 8.9375 37.632812 8.703125 37.808594 8.496094 37.90625 C 8.105469 38.089844 7.78125 38.039062 7.53125 37.789062 C 7.339844 37.59375 7.234375 37.277344 7.21875 36.859375 C 7.179688 35.871094 7.636719 34.050781 8.703125 31.773438 C 8.800781 31.566406 9.046875 31.480469 9.25 31.574219 C 9.457031 31.671875 9.542969 31.914062 9.449219 32.121094 C 8.441406 34.273438 8.003906 35.949219 8.039062 36.828125 C 8.046875 37.035156 8.074219 37.167969 8.117188 37.210938 C 8.132812 37.226562 8.113281 37.179688 8.148438 37.164062 C 8.496094 37 9.019531 36.425781 9.707031 35.34375 C 9.804688 35.1875 10 35.113281 10.179688 35.171875 C 10.398438 35.242188 10.515625 35.476562 10.445312 35.691406 C 10.441406 35.699219 9.664062 38.054688 9.902344 38.230469 C 10.003906 38.304688 11.128906 36.503906 11.210938 36.363281 C 11.308594 36.203125 11.503906 36.125 11.691406 36.179688 C 11.90625 36.25 12.027344 36.480469 11.960938 36.695312 C 11.957031 36.703125 11.253906 38.945312 11.542969 39.082031 C 11.769531 39.1875 12.667969 37.203125 12.761719 36.996094 C 12.792969 36.910156 12.855469 36.832031 12.945312 36.785156 C 13.140625 36.671875 13.390625 36.746094 13.503906 36.941406 C 13.503906 36.949219 14.320312 38.414062 14.847656 38.460938 C 15.011719 38.472656 14.511719 36.375 14.507812 36.367188 Z M 14.507812 36.367188 " fill-opacity="1" fill-rule="nonzero"/></g></svg>