<svg xmlns="http://www.w3.org/2000/svg" xmlns:xlink="http://www.w3.org/1999/xlink" width="95" zoomAndPan="magnify" viewBox="0 0 71.25 71.25" height="95" preserveAspectRatio="xMidYMid meet" version="1.0"><defs><clipPath id="48ab095afa"><path d="M 0 0 L 70.484375 0 L 70.484375 70.484375 L 0 70.484375 Z M 0 0 " clip-rule="nonzero"/></clipPath><clipPath id="974349641f"><path d="M 35.242188 0 C 15.777344 0 0 15.777344 0 35.242188 C 0 54.707031 15.777344 70.484375 35.242188 70.484375 C 54.707031 70.484375 70.484375 54.707031 70.484375 35.242188 C 70.484375 15.777344 54.707031 0 35.242188 0 Z M 35.242188 0 " clip-rule="nonzero"/></clipPath><clipPath id="98a18987ce"><path d="M 0 0 L 70.484375 0 L 70.484375 70.484375 L 0 70.484375 Z M 0 0 " clip-rule="nonzero"/></clipPath><clipPath id="308aee2eb1"><path d="M 35.242188 0 C 15.777344 0 0 15.777344 0 35.242188 C 0 54.707031 15.777344 70.484375 35.242188 70.484375 C 54.707031 70.484375 70.484375 54.707031 70.484375 35.242188 C 70.484375 15.777344 54.707031 0 35.242188 0 Z M 35.242188 0 " clip-rule="nonzero"/></clipPath><clipPath id="3a4fda0ec7"><rect x="0" width="71" y="0" height="71"/></clipPath><clipPath id="fa87634719"><path d="M 32 36 L 46 36 L 46 69.765625 L 32 69.765625 Z M 32 36 " clip-rule="nonzero"/></clipPath><clipPath id="e6ad9d6d5b"><path d="M 44 23 L 56.253906 23 L 56.253906 48 L 44 48 Z M 44 23 " clip-rule="nonzero"/></clipPath><clipPath id="d316587182"><path d="M 26 8.90625 L 49 8.90625 L 49 21 L 26 21 Z M 26 8.90625 " clip-rule="nonzero"/></clipPath><clipPath id="43d0571486"><path d="M 39 64 L 43 64 L 43 69.765625 L 39 69.765625 Z M 39 64 " clip-rule="nonzero"/></clipPath></defs><g clip-path="url(#48ab095afa)"><g clip-path="url(#974349641f)"><g transform="matrix(1, 0, 0, 1, -0, -0.000000000000008569)"><g clip-path="url(#3a4fda0ec7)"><g clip-path="url(#98a18987ce)"><g clip-path="url(#308aee2eb1)"><path fill="#353763" d="M 0 0 L 70.484375 0 L 70.484375 70.484375 L 0 70.484375 Z M 0 0 " fill-opacity="1" fill-rule="nonzero"/></g></g></g></g></g></g><path fill="#ff8282" d="M 35.898438 36.734375 C 35.953125 36.769531 36.011719 36.804688 36.070312 36.839844 C 40.121094 39.226562 45.339844 37.878906 47.726562 33.828125 C 50.113281 29.777344 48.765625 24.558594 44.714844 22.171875 C 42.707031 20.988281 40.410156 20.722656 38.3125 21.253906 C 38.230469 21.273438 38.144531 21.296875 38.0625 21.320312 C 37.53125 21.4375 36.1875 21.625 34.410156 21.035156 L 34.28125 20.992188 L 34.273438 20.988281 C 30.875 19.875 27.039062 21.226562 25.148438 24.4375 C 22.964844 28.140625 24.199219 32.914062 27.902344 35.097656 C 29.160156 35.839844 30.542969 36.1875 31.902344 36.175781 L 31.910156 36.175781 C 31.988281 36.175781 32.070312 36.175781 32.148438 36.171875 C 32.785156 36.164062 34.554688 36.199219 35.898438 36.734375 Z M 35.898438 36.734375 " fill-opacity="1" fill-rule="evenodd"/><path fill="#ffffff" d="M 26.109375 33.367188 C 26.308594 33.324219 26.507812 33.449219 26.550781 33.652344 C 26.597656 33.851562 26.46875 34.050781 26.269531 34.09375 C 23.988281 34.605469 20.625 35.914062 18.324219 39.265625 C 16.007812 42.648438 14.765625 48.121094 16.753906 56.964844 C 16.785156 57.09375 16.742188 57.21875 16.660156 57.304688 L 15.511719 58.597656 L 23.34375 57.664062 C 22.917969 54.910156 20.742188 38.285156 30.246094 35.6875 C 30.445312 35.632812 30.648438 35.75 30.703125 35.949219 C 30.757812 36.144531 30.640625 36.351562 30.441406 36.40625 C 20.871094 39.023438 24.054688 57.40625 24.140625 57.914062 L 24.148438 57.945312 C 24.171875 58.148438 24.023438 58.335938 23.820312 58.359375 L 14.625 59.457031 C 14.523438 59.46875 14.417969 59.4375 14.335938 59.367188 C 14.179688 59.230469 14.167969 58.996094 14.304688 58.839844 L 15.988281 56.941406 C 14 47.964844 15.308594 42.351562 17.707031 38.847656 C 20.144531 35.289062 23.699219 33.90625 26.109375 33.367188 Z M 26.109375 33.367188 " fill-opacity="1" fill-rule="nonzero"/><g clip-path="url(#fa87634719)"><path fill="#ffffff" d="M 44.898438 36.375 C 44.96875 36.179688 45.179688 36.082031 45.375 36.148438 C 45.566406 36.21875 45.667969 36.433594 45.597656 36.625 C 45.582031 36.671875 39.683594 52.789062 44.058594 69.207031 C 44.113281 69.40625 43.992188 69.609375 43.792969 69.664062 C 43.761719 69.671875 43.730469 69.675781 43.699219 69.675781 L 32.578125 69.675781 C 32.371094 69.675781 32.203125 69.507812 32.203125 69.300781 C 32.203125 69.175781 32.269531 69.0625 32.367188 68.992188 L 35.105469 66.710938 C 34.546875 64.445312 30.316406 45.886719 40.613281 37.714844 C 40.773438 37.585938 41.011719 37.613281 41.136719 37.773438 C 41.265625 37.9375 41.238281 38.171875 41.078125 38.300781 C 30.5 46.691406 35.871094 66.695312 35.886719 66.75 C 35.921875 66.886719 35.878906 67.035156 35.765625 67.132812 L 33.609375 68.929688 L 43.21875 68.929688 C 39.015625 52.453125 44.882812 36.421875 44.898438 36.375 Z M 44.898438 36.375 " fill-opacity="1" fill-rule="nonzero"/></g><g clip-path="url(#e6ad9d6d5b)"><path fill="#ffffff" d="M 46.527344 24.09375 C 46.335938 24.015625 46.238281 23.800781 46.3125 23.609375 C 46.390625 23.417969 46.605469 23.320312 46.796875 23.398438 C 50.730469 24.941406 53.535156 27.984375 55.074219 31.398438 C 55.863281 33.140625 56.320312 34.980469 56.433594 36.769531 C 56.546875 38.5625 56.308594 40.304688 55.707031 41.839844 C 54.90625 43.878906 53.464844 45.550781 51.34375 46.511719 C 50.351562 46.960938 49.339844 47.1875 48.460938 47.277344 C 47.128906 47.410156 46.046875 47.214844 45.753906 47.007812 C 44.9375 46.4375 44.996094 45.933594 45.132812 45.652344 C 45.039062 45.417969 44.929688 45.035156 45.054688 44.730469 C 44.886719 44.378906 44.660156 43.722656 45.128906 43.378906 C 45.382812 43.195312 45.785156 43.148438 46.21875 43.101562 C 46.617188 43.054688 47.050781 43.007812 47.222656 42.867188 C 47.378906 42.734375 47.617188 42.757812 47.746094 42.917969 C 47.878906 43.074219 47.855469 43.3125 47.699219 43.441406 C 47.355469 43.726562 46.808594 43.785156 46.300781 43.84375 C 45.972656 43.878906 45.664062 43.914062 45.570312 43.980469 C 45.476562 44.050781 45.804688 44.546875 45.804688 44.546875 C 45.914062 44.714844 45.875 44.941406 45.710938 45.058594 C 45.664062 45.09375 45.835938 45.414062 45.878906 45.492188 C 45.96875 45.636719 45.949219 45.828125 45.824219 45.953125 C 45.824219 45.953125 45.695312 46.058594 46.179688 46.398438 C 46.375 46.535156 47.230469 46.652344 48.386719 46.535156 C 49.195312 46.449219 50.121094 46.242188 51.039062 45.828125 C 52.96875 44.957031 54.28125 43.429688 55.011719 41.570312 C 55.574219 40.136719 55.792969 38.503906 55.6875 36.816406 C 55.582031 35.117188 55.144531 33.363281 54.394531 31.703125 C 52.925781 28.457031 50.261719 25.558594 46.527344 24.09375 Z M 46.527344 24.09375 " fill-opacity="1" fill-rule="nonzero"/></g><path fill="#ffffff" d="M 46.53125 43.496094 C 46.523438 43.703125 46.351562 43.863281 46.144531 43.855469 C 45.941406 43.847656 45.78125 43.675781 45.785156 43.46875 C 45.789062 43.464844 45.832031 41.996094 47.117188 41.738281 C 47.746094 41.617188 48.285156 41.289062 48.726562 40.828125 C 49.296875 40.226562 49.707031 39.390625 49.921875 38.460938 C 50.140625 37.515625 50.164062 36.46875 49.964844 35.460938 C 49.726562 34.269531 49.179688 33.128906 48.277344 32.269531 C 48.128906 32.128906 48.121094 31.890625 48.261719 31.742188 C 48.40625 31.59375 48.640625 31.585938 48.789062 31.730469 C 49.8125 32.703125 50.433594 33.984375 50.699219 35.316406 C 50.917969 36.429688 50.894531 37.582031 50.648438 38.625 C 50.402344 39.6875 49.933594 40.640625 49.265625 41.339844 C 48.722656 41.914062 48.050781 42.316406 47.261719 42.472656 C 46.5625 42.613281 46.53125 43.492188 46.53125 43.496094 Z M 46.53125 43.496094 " fill-opacity="1" fill-rule="nonzero"/><path fill="#ffffff" d="M 24.316406 26.957031 C 24.5 27.050781 24.574219 27.277344 24.476562 27.460938 C 24.382812 27.644531 24.160156 27.714844 23.976562 27.621094 L 23.917969 27.589844 C 21.109375 26.128906 18.84375 23.894531 17.605469 21.390625 C 16.351562 18.851562 16.148438 16.035156 17.492188 13.4375 L 17.507812 13.40625 C 18.011719 12.4375 18.664062 11.632812 19.300781 11.019531 C 20.265625 10.089844 21.238281 9.574219 21.59375 9.554688 C 22.585938 9.5 22.851562 9.933594 22.917969 10.238281 C 23.136719 10.367188 23.460938 10.601562 23.550781 10.914062 C 23.898438 11.082031 24.488281 11.457031 24.328125 12.027344 L 24.320312 12.050781 C 24.277344 12.1875 24.191406 12.324219 24.078125 12.460938 C 23.980469 12.578125 23.863281 12.699219 23.738281 12.824219 C 23.59375 12.96875 23.355469 12.96875 23.210938 12.820312 C 23.066406 12.675781 23.066406 12.441406 23.210938 12.292969 C 23.324219 12.183594 23.429688 12.078125 23.503906 11.984375 C 23.554688 11.921875 23.59375 11.867188 23.605469 11.832031 L 23.609375 11.824219 C 23.636719 11.726562 23.152344 11.550781 23.078125 11.523438 C 22.886719 11.460938 22.777344 11.257812 22.835938 11.0625 C 22.851562 11.007812 22.519531 10.863281 22.4375 10.828125 C 22.273438 10.769531 22.167969 10.601562 22.191406 10.421875 C 22.191406 10.421875 22.222656 10.269531 21.636719 10.300781 C 21.398438 10.3125 20.652344 10.753906 19.816406 11.558594 C 19.234375 12.121094 18.632812 12.859375 18.167969 13.75 L 18.152344 13.777344 C 16.933594 16.148438 17.125 18.726562 18.273438 21.0625 C 19.441406 23.425781 21.589844 25.535156 24.261719 26.929688 Z M 24.316406 26.957031 " fill-opacity="1" fill-rule="nonzero"/><path fill="#ffffff" d="M 26.882812 22.191406 C 27.070312 22.28125 27.152344 22.503906 27.0625 22.6875 C 26.976562 22.875 26.753906 22.957031 26.570312 22.867188 C 25.976562 22.589844 25.425781 22.226562 24.933594 21.804688 C 23.871094 20.890625 23.0625 19.699219 22.644531 18.476562 C 22.214844 17.226562 22.183594 15.9375 22.6875 14.867188 L 22.699219 14.847656 C 22.832031 14.566406 23.003906 14.300781 23.210938 14.058594 C 23.636719 13.5625 23.238281 12.925781 23.164062 12.816406 C 23.058594 12.707031 22.5625 12.210938 22.464844 12.34375 C 22.28125 12.597656 22.480469 12.773438 22.480469 12.773438 C 22.632812 12.910156 22.644531 13.148438 22.507812 13.300781 C 22.488281 13.320312 22.46875 13.339844 22.449219 13.355469 C 22.363281 13.425781 21.980469 13.777344 22.121094 14.175781 C 22.1875 14.371094 22.085938 14.582031 21.890625 14.652344 C 21.699219 14.71875 21.484375 14.617188 21.414062 14.421875 C 21.195312 13.808594 21.5 13.292969 21.746094 13.007812 C 21.613281 12.75 21.535156 12.359375 21.855469 11.910156 C 22.460938 11.070312 23.574219 12.167969 23.710938 12.308594 C 23.726562 12.324219 23.742188 12.339844 23.757812 12.359375 C 23.757812 12.363281 24.632812 13.546875 23.777344 14.542969 C 23.613281 14.734375 23.476562 14.945312 23.371094 15.164062 L 23.363281 15.183594 C 22.945312 16.070312 22.980469 17.160156 23.351562 18.234375 C 23.730469 19.335938 24.457031 20.410156 25.417969 21.234375 C 25.863281 21.617188 26.355469 21.945312 26.882812 22.191406 Z M 26.882812 22.191406 " fill-opacity="1" fill-rule="nonzero"/><path fill="#ffffff" d="M 22.894531 10.945312 C 23.015625 10.78125 23.25 10.746094 23.414062 10.867188 C 23.578125 10.992188 23.613281 11.226562 23.492188 11.390625 L 22.882812 12.210938 C 22.757812 12.375 22.523438 12.410156 22.359375 12.289062 C 22.195312 12.164062 22.160156 11.929688 22.28125 11.765625 Z M 22.894531 10.945312 " fill-opacity="1" fill-rule="nonzero"/><path fill="#ffffff" d="M 22.382812 10.148438 C 22.5625 10.050781 22.789062 10.113281 22.886719 10.292969 C 22.988281 10.472656 22.921875 10.703125 22.742188 10.800781 C 22.742188 10.800781 21.792969 11.328125 21.875 11.605469 C 21.964844 11.917969 22.105469 11.917969 22.109375 11.917969 C 22.3125 11.941406 22.460938 12.125 22.4375 12.332031 C 22.414062 12.535156 22.230469 12.683594 22.027344 12.660156 C 22.023438 12.660156 21.398438 12.625 21.160156 11.8125 C 20.910156 10.964844 22.375 10.152344 22.378906 10.148438 Z M 22.382812 10.148438 " fill-opacity="1" fill-rule="nonzero"/><path fill="#ffffff" d="M 20.195312 10.300781 C 20.300781 10.125 20.527344 10.0625 20.707031 10.167969 C 20.882812 10.273438 20.941406 10.5 20.839844 10.679688 C 20.835938 10.679688 20.625 11.035156 21.628906 11.355469 C 21.824219 11.417969 21.933594 11.625 21.871094 11.820312 C 21.8125 12.019531 21.601562 12.125 21.40625 12.066406 C 19.507812 11.460938 20.191406 10.304688 20.195312 10.300781 Z M 20.195312 10.300781 " fill-opacity="1" fill-rule="nonzero"/><g clip-path="url(#d316587182)"><path fill="#ffffff" d="M 43.53125 17.535156 L 43.550781 17.5 C 43.71875 17.21875 43.847656 16.90625 43.933594 16.558594 C 44.019531 16.210938 44.066406 15.832031 44.066406 15.417969 C 44.066406 15.078125 44.03125 14.746094 43.964844 14.425781 L 43.941406 14.316406 C 43.855469 13.949219 43.730469 13.597656 43.566406 13.257812 C 43.046875 12.191406 42.15625 11.28125 41.027344 10.644531 C 39.925781 10.019531 38.59375 9.65625 37.160156 9.65625 C 35.917969 9.65625 34.753906 9.925781 33.746094 10.40625 C 32.796875 10.855469 31.988281 11.488281 31.386719 12.246094 L 31.375 12.265625 C 31.324219 12.328125 31.277344 12.394531 31.226562 12.460938 C 31.03125 12.730469 30.863281 13.019531 30.722656 13.320312 C 30.726562 13.34375 30.722656 13.367188 30.71875 13.394531 C 30.707031 13.488281 30.660156 13.566406 30.59375 13.625 C 30.558594 13.710938 30.527344 13.796875 30.496094 13.882812 C 30.335938 14.371094 30.25 14.886719 30.25 15.417969 C 30.25 15.648438 30.269531 15.867188 30.304688 16.070312 C 30.335938 16.28125 30.390625 16.484375 30.460938 16.675781 C 30.828125 17.699219 31.664062 18.453125 32.78125 18.96875 C 34.082031 19.570312 35.757812 19.84375 37.515625 19.84375 C 38.996094 19.84375 40.316406 19.648438 41.375 19.230469 C 42.332031 18.851562 43.074219 18.296875 43.53125 17.535156 Z M 44.386719 17.503906 L 44.511719 17.535156 C 44.679688 17.570312 44.855469 17.589844 45.035156 17.589844 C 45.683594 17.589844 46.269531 17.34375 46.691406 16.945312 C 47.105469 16.550781 47.363281 16.011719 47.363281 15.414062 C 47.363281 14.816406 47.105469 14.273438 46.691406 13.878906 C 46.269531 13.480469 45.683594 13.234375 45.035156 13.234375 C 44.859375 13.234375 44.691406 13.253906 44.53125 13.285156 L 44.40625 13.316406 C 44.488281 13.519531 44.558594 13.730469 44.617188 13.945312 C 45.21875 13.964844 46.398438 14.226562 46.441406 15.964844 C 46.445312 16.167969 46.28125 16.339844 46.078125 16.34375 C 45.871094 16.347656 45.699219 16.1875 45.695312 15.980469 C 45.671875 15.039062 45.148438 14.777344 44.769531 14.710938 C 44.800781 14.941406 44.816406 15.179688 44.816406 15.417969 C 44.816406 15.890625 44.761719 16.332031 44.660156 16.738281 C 44.589844 17.007812 44.5 17.261719 44.390625 17.503906 Z M 44.351562 18.265625 C 44.234375 18.238281 44.121094 18.207031 44.007812 18.167969 C 43.457031 18.953125 42.648438 19.53125 41.652344 19.925781 C 40.5 20.382812 39.085938 20.59375 37.515625 20.59375 C 35.65625 20.59375 33.875 20.296875 32.46875 19.648438 C 31.269531 19.09375 30.339844 18.285156 29.859375 17.191406 L 29.804688 17.191406 C 28.960938 17.191406 28.195312 16.867188 27.640625 16.34375 C 27.078125 15.8125 26.730469 15.078125 26.730469 14.265625 C 26.730469 13.457031 27.078125 12.722656 27.640625 12.191406 C 28.195312 11.667969 28.960938 11.34375 29.804688 11.34375 C 30.058594 11.34375 30.3125 11.375 30.554688 11.433594 C 30.703125 11.46875 30.847656 11.511719 30.984375 11.566406 C 31.632812 10.816406 32.464844 10.1875 33.429688 9.730469 C 34.53125 9.207031 35.804688 8.90625 37.160156 8.90625 C 38.726562 8.90625 40.183594 9.308594 41.398438 9.996094 C 42.550781 10.648438 43.484375 11.558594 44.082031 12.632812 C 44.171875 12.605469 44.269531 12.578125 44.363281 12.558594 L 44.378906 12.554688 C 44.59375 12.511719 44.8125 12.488281 45.035156 12.488281 C 45.878906 12.488281 46.644531 12.8125 47.199219 13.335938 C 47.761719 13.867188 48.109375 14.601562 48.109375 15.414062 C 48.109375 16.222656 47.761719 16.957031 47.199219 17.488281 C 46.644531 18.011719 45.878906 18.335938 45.035156 18.335938 C 44.800781 18.335938 44.574219 18.3125 44.351562 18.265625 Z M 29.753906 13.757812 C 29.402344 13.867188 29 14.171875 28.980469 14.992188 C 28.976562 15.195312 28.804688 15.359375 28.601562 15.355469 C 28.394531 15.351562 28.230469 15.179688 28.234375 14.972656 C 28.277344 13.226562 29.472656 12.972656 30.070312 12.953125 C 30.195312 12.691406 30.34375 12.4375 30.507812 12.191406 L 30.382812 12.15625 C 30.203125 12.113281 30.007812 12.089844 29.804688 12.089844 C 29.15625 12.089844 28.574219 12.335938 28.152344 12.734375 C 27.734375 13.128906 27.480469 13.667969 27.480469 14.265625 C 27.480469 14.863281 27.734375 15.40625 28.152344 15.800781 C 28.53125 16.160156 29.042969 16.394531 29.613281 16.4375 C 29.597656 16.359375 29.582031 16.277344 29.566406 16.195312 C 29.523438 15.941406 29.503906 15.683594 29.503906 15.417969 C 29.503906 14.84375 29.589844 14.289062 29.753906 13.757812 Z M 29.753906 13.757812 " fill-opacity="1" fill-rule="nonzero"/></g><path fill="#ffffff" d="M 40.113281 16.148438 C 40.226562 15.976562 40.457031 15.925781 40.628906 16.035156 C 40.800781 16.144531 40.851562 16.375 40.742188 16.550781 C 40.738281 16.554688 39.757812 18.160156 37.210938 18.179688 C 34.648438 18.203125 33.566406 16.21875 33.5625 16.210938 C 33.464844 16.03125 33.527344 15.804688 33.707031 15.703125 C 33.886719 15.601562 34.113281 15.667969 34.214844 15.847656 C 34.21875 15.851562 35.089844 17.453125 37.207031 17.4375 C 39.339844 17.417969 40.113281 16.152344 40.113281 16.148438 Z M 37.210938 12.382812 C 37.3125 12.203125 37.539062 12.140625 37.71875 12.238281 C 37.898438 12.339844 37.964844 12.566406 37.863281 12.75 C 37.859375 12.75 37.183594 13.929688 37.699219 14.5 C 37.835938 14.65625 37.820312 14.890625 37.667969 15.027344 C 37.515625 15.164062 37.28125 15.152344 37.144531 15 C 36.265625 14.019531 37.207031 12.386719 37.210938 12.382812 Z M 37.210938 12.382812 " fill-opacity="1" fill-rule="nonzero"/><path fill="#ffffff" d="M 41.460938 16.320312 C 41.667969 16.328125 41.828125 16.5 41.820312 16.707031 C 41.8125 16.910156 41.636719 17.074219 41.433594 17.0625 C 41.429688 17.0625 40.058594 17.046875 39.71875 16.023438 C 39.652344 15.828125 39.757812 15.617188 39.953125 15.550781 C 40.148438 15.488281 40.359375 15.59375 40.425781 15.789062 C 40.597656 16.304688 41.460938 16.320312 41.460938 16.320312 Z M 41.460938 16.320312 " fill-opacity="1" fill-rule="nonzero"/><path fill="#ffffff" d="M 33.96875 15.503906 C 34.046875 15.3125 34.265625 15.222656 34.457031 15.304688 C 34.644531 15.386719 34.734375 15.605469 34.652344 15.792969 C 34.652344 15.796875 34.269531 16.671875 33.074219 16.535156 C 32.867188 16.511719 32.722656 16.324219 32.746094 16.121094 C 32.769531 15.914062 32.953125 15.769531 33.15625 15.792969 C 33.804688 15.867188 33.964844 15.503906 33.96875 15.503906 Z M 33.96875 15.503906 " fill-opacity="1" fill-rule="nonzero"/><path fill="#ffffff" d="M 39.808594 12.570312 C 39.507812 12.570312 39.261719 12.96875 39.261719 13.464844 C 39.261719 13.960938 39.507812 14.363281 39.808594 14.363281 C 40.109375 14.363281 40.351562 13.960938 40.351562 13.464844 C 40.351562 12.96875 40.109375 12.570312 39.808594 12.570312 Z M 39.808594 12.570312 " fill-opacity="1" fill-rule="evenodd"/><path fill="#ffffff" d="M 34.59375 12.441406 C 34.292969 12.441406 34.050781 12.84375 34.050781 13.339844 C 34.050781 13.832031 34.292969 14.234375 34.59375 14.234375 C 34.894531 14.234375 35.140625 13.832031 35.140625 13.339844 C 35.140625 12.84375 34.894531 12.441406 34.59375 12.441406 Z M 34.59375 12.441406 " fill-opacity="1" fill-rule="evenodd"/><path fill="#ffffff" d="M 15.566406 52.167969 L 23.164062 51.230469 L 23.253906 51.972656 L 15.65625 52.910156 Z M 15.566406 52.167969 " fill-opacity="1" fill-rule="nonzero"/><path fill="#ffffff" d="M 34.613281 61.417969 L 42.460938 62.160156 L 42.390625 62.902344 L 34.542969 62.160156 Z M 34.613281 61.417969 " fill-opacity="1" fill-rule="nonzero"/><path fill="#ffffff" d="M 23.324219 54.53125 C 23.316406 54.53125 20.425781 54.4375 21.09375 58.289062 L 20.355469 58.414062 C 19.53125 53.664062 23.320312 53.789062 23.332031 53.789062 Z M 23.324219 54.53125 " fill-opacity="1" fill-rule="nonzero"/><g clip-path="url(#43d0571486)"><path fill="#ffffff" d="M 42.8125 65.601562 C 42.804688 65.601562 39.972656 65.550781 40.242188 69.277344 L 39.496094 69.328125 C 39.167969 64.792969 42.800781 64.851562 42.8125 64.851562 Z M 42.8125 65.601562 " fill-opacity="1" fill-rule="nonzero"/></g><path fill="#ffffff" d="M 33.132812 10.078125 C 33.140625 10.085938 36.792969 12.09375 40.664062 9.804688 L 41.042969 10.449219 C 36.804688 12.953125 32.785156 10.742188 32.773438 10.734375 Z M 33.132812 10.078125 " fill-opacity="1" fill-rule="nonzero"/></svg>