<svg xmlns="http://www.w3.org/2000/svg" xmlns:xlink="http://www.w3.org/1999/xlink" width="144" zoomAndPan="magnify" viewBox="0 0 108 121.500001" height="162" preserveAspectRatio="xMidYMid meet" version="1.0"><defs><clipPath id="e5cfcf3310"><path d="M 0.222656 8 L 96 8 L 96 121 L 0.222656 121 Z M 0.222656 8 " clip-rule="nonzero"/></clipPath></defs><path fill="#fc7837" d="M 29.414062 68.332031 L 51.242188 61.183594 C 48.929688 52.441406 60.386719 48.617188 63.726562 57.097656 L 85.554688 49.949219 C 70.535156 11.816406 19.019531 29.011719 29.414062 68.332031 Z M 29.414062 68.332031 " fill-opacity="1" fill-rule="evenodd"/><g clip-path="url(#e5cfcf3310)"><path fill="#ffffff" d="M 63.816406 29.964844 C 63.480469 30.113281 63.089844 29.960938 62.941406 29.628906 C 62.792969 29.292969 62.941406 28.902344 63.277344 28.753906 C 67.289062 26.953125 72.382812 24.453125 77.097656 21.511719 C 81.75 18.605469 86.015625 15.277344 88.433594 11.796875 C 88.566406 11.566406 90.546875 8.101562 91.757812 8.476562 C 92.78125 8.789062 92.269531 10.910156 91.898438 12.082031 C 92.523438 12.25 93.285156 12.652344 93.488281 13.601562 C 94.335938 13.574219 95.597656 13.820312 95.863281 15.476562 C 96.039062 16.566406 94.519531 21.554688 89.699219 27.046875 C 86.875 30.261719 82.914062 33.699219 77.492188 36.703125 C 77.171875 36.882812 76.769531 36.765625 76.589844 36.445312 C 76.414062 36.125 76.527344 35.722656 76.847656 35.546875 C 82.121094 32.625 85.964844 29.289062 88.703125 26.171875 C 91.828125 22.613281 93.496094 19.410156 94.179688 17.464844 C 93.652344 17.871094 93.046875 18.070312 92.464844 17.675781 C 92 17.355469 91.789062 16.925781 91.71875 16.5 C 91.355469 17.066406 90.628906 17.144531 90.109375 17.121094 C 89.753906 17.675781 88.875 18.324219 86.722656 18.050781 C 86.359375 18.003906 86.105469 17.671875 86.148438 17.308594 C 86.195312 16.949219 86.527344 16.691406 86.890625 16.734375 C 89.011719 17.007812 89.027344 16.363281 89.027344 16.359375 C 89.03125 16.316406 89.039062 16.273438 89.046875 16.230469 C 89.140625 15.878906 89.503906 15.664062 89.859375 15.757812 C 89.859375 15.757812 90.449219 15.910156 90.582031 15.785156 C 90.554688 15.730469 90.535156 15.667969 90.523438 15.605469 C 90.082031 15.273438 88.066406 14.871094 88.058594 14.871094 C 87.949219 14.847656 87.851562 14.800781 87.769531 14.734375 C 85.191406 17.574219 81.617188 20.25 77.796875 22.636719 C 73.035156 25.609375 67.878906 28.140625 63.816406 29.964844 Z M 89.546875 12.515625 C 89.285156 12.898438 89 13.28125 88.695312 13.65625 C 89.019531 13.742188 89.511719 13.882812 90.015625 14.082031 C 90.042969 13.359375 90.289062 12.65625 90.367188 12.441406 L 90.386719 12.390625 C 90.386719 12.382812 91.390625 9.75 91.367188 9.742188 C 91.167969 9.679688 89.585938 12.460938 89.578125 12.46875 Z M 92.207031 14.265625 C 92.25 13.667969 91.8125 13.4375 91.453125 13.347656 C 91.324219 13.777344 91.191406 14.375 91.394531 14.601562 C 91.453125 14.667969 91.496094 14.742188 91.523438 14.820312 C 92.230469 14.757812 92.203125 14.402344 92.203125 14.402344 C 92.199219 14.355469 92.199219 14.308594 92.207031 14.265625 Z M 94.375 15.25 C 94.136719 14.957031 93.734375 14.917969 93.433594 14.9375 C 93.371094 15.117188 93.273438 15.3125 93.117188 15.492188 C 93.023438 15.761719 92.867188 16.339844 93.214844 16.578125 C 93.441406 16.734375 94.0625 15.769531 94.375 15.25 Z M 65.5625 57.113281 C 65.203125 57.050781 64.960938 56.707031 65.023438 56.34375 C 65.085938 55.984375 65.429688 55.742188 65.792969 55.804688 C 77.21875 57.824219 79.464844 64.644531 78.070312 72.523438 C 76.925781 78.996094 73.265625 86.160156 70.347656 91.863281 C 69.902344 92.734375 69.476562 93.574219 69.054688 94.417969 L 82.070312 99.398438 L 79.578125 95.726562 C 79.421875 95.492188 79.433594 95.195312 79.585938 94.976562 C 79.660156 94.867188 106.542969 57.269531 75.777344 53.785156 C 75.414062 53.746094 75.152344 53.417969 75.191406 53.054688 C 75.230469 52.691406 75.558594 52.429688 75.921875 52.46875 C 107.113281 56 83.691406 91.355469 80.929688 95.363281 L 84.320312 100.355469 C 84.460938 100.53125 84.507812 100.78125 84.421875 101.007812 C 84.292969 101.351562 83.910156 101.523438 83.566406 101.394531 L 67.898438 95.398438 L 67.839844 95.371094 C 67.511719 95.207031 67.378906 94.8125 67.539062 94.480469 C 68 93.546875 68.570312 92.433594 69.171875 91.261719 C 72.042969 85.640625 75.648438 78.585938 76.761719 72.296875 C 78.027344 65.144531 75.976562 58.953125 65.5625 57.113281 Z M 47.890625 61.960938 C 47.949219 61.601562 48.289062 61.355469 48.652344 61.414062 C 49.011719 61.472656 49.257812 61.8125 49.199219 62.175781 L 39.726562 120.0625 C 39.675781 120.386719 39.394531 120.617188 39.074219 120.617188 L 20.722656 120.621094 C 20.355469 120.621094 20.058594 120.324219 20.058594 119.957031 C 20.058594 119.738281 20.164062 119.542969 20.328125 119.421875 L 27.351562 113.269531 L 37.980469 65.171875 C 38.058594 64.816406 38.414062 64.589844 38.769531 64.667969 C 39.125 64.746094 39.351562 65.101562 39.273438 65.457031 L 28.601562 113.746094 C 28.578125 113.890625 28.503906 114.023438 28.386719 114.125 L 22.488281 119.289062 L 38.511719 119.289062 Z M 35.695312 37.257812 C 36.0625 37.242188 36.371094 37.527344 36.386719 37.890625 C 36.402344 38.257812 36.121094 38.566406 35.753906 38.582031 C 31.3125 38.789062 25.574219 38.855469 19.972656 38.347656 C 15.488281 37.941406 11.089844 37.167969 7.507812 35.796875 C 7.464844 35.890625 7.402344 35.976562 7.3125 36.046875 C 7.308594 36.050781 5.695312 37.324219 5.445312 37.816406 C 5.464844 37.875 5.472656 37.9375 5.472656 37.996094 C 5.648438 38.027344 6.132812 37.632812 6.132812 37.628906 C 6.417969 37.402344 6.835938 37.449219 7.0625 37.734375 L 7.113281 37.808594 C 7.117188 37.808594 7.421875 38.386719 9.195312 37.183594 C 9.5 36.980469 9.910156 37.058594 10.117188 37.363281 C 10.320312 37.664062 10.242188 38.078125 9.9375 38.28125 C 8.148438 39.496094 7.074219 39.316406 6.503906 38.984375 C 6.0625 39.246094 5.371094 39.515625 4.78125 39.15625 C 4.910156 39.570312 4.917969 40.042969 4.644531 40.535156 C 4.34375 41.085938 3.8125 41.21875 3.238281 41.15625 C 5.015625 42.605469 8.464844 44.726562 13.246094 46.523438 C 17.546875 48.140625 22.894531 49.445312 29.023438 49.679688 C 29.390625 49.691406 29.675781 50 29.664062 50.367188 C 29.652344 50.730469 29.34375 51.015625 28.976562 51.003906 C 22.679688 50.765625 17.191406 49.425781 12.78125 47.765625 C 5.445312 45.007812 0.976562 41.222656 0.621094 40.105469 C 0.582031 39.980469 0.550781 39.863281 0.53125 39.75 C 0.519531 39.710938 0.515625 39.671875 0.511719 39.632812 C 0.347656 38.40625 1.230469 37.722656 1.90625 37.386719 C 1.644531 36.4375 2.148438 35.726562 2.640625 35.289062 C 1.78125 34.398438 0.378906 32.730469 1.128906 32.007812 C 2.042969 31.125 5.320312 33.292969 5.582031 33.46875 C 9.3125 35.488281 14.621094 36.535156 20.09375 37.027344 C 25.613281 37.527344 31.296875 37.460938 35.695312 37.257812 Z M 6.199219 35.25 C 5.757812 35.050781 5.328125 34.839844 4.921875 34.617188 L 4.878906 34.589844 C 4.871094 34.585938 2.1875 32.828125 2.046875 32.964844 C 2 33.007812 3.792969 34.597656 4.070312 34.84375 L 4.109375 34.878906 C 4.113281 34.878906 4.792969 35.464844 5.210938 36.21875 C 5.574219 35.816406 5.949219 35.46875 6.199219 35.25 Z M 3.589844 36.21875 C 3.308594 36.457031 3.023438 36.863281 3.34375 37.386719 C 3.367188 37.421875 3.386719 37.457031 3.402344 37.496094 C 3.402344 37.496094 3.539062 37.828125 4.195312 37.566406 C 4.183594 37.484375 4.1875 37.398438 4.210938 37.3125 C 4.289062 37.019531 3.898438 36.542969 3.589844 36.21875 Z M 2.5625 38.542969 C 2.289062 38.675781 1.957031 38.898438 1.863281 39.242188 C 2.378906 39.566406 3.351562 40.132812 3.480469 39.898438 C 3.6875 39.523438 3.285156 39.078125 3.082031 38.886719 C 2.867188 38.796875 2.695312 38.671875 2.5625 38.546875 Z M 2.5625 38.542969 " fill-opacity="1" fill-rule="nonzero"/></g><path fill="#ffffff" d="M 36.882812 23.367188 L 36.921875 23.429688 C 37.734375 24.777344 39.054688 25.769531 40.75 26.441406 C 42.636719 27.1875 44.980469 27.535156 47.609375 27.535156 C 50.738281 27.535156 53.714844 27.042969 56.027344 25.976562 C 58.011719 25.0625 59.5 23.722656 60.152344 21.902344 C 60.273438 21.558594 60.367188 21.199219 60.429688 20.828125 C 60.492188 20.464844 60.523438 20.074219 60.523438 19.664062 C 60.523438 18.71875 60.371094 17.804688 60.085938 16.941406 C 60.03125 16.785156 59.976562 16.628906 59.917969 16.476562 C 59.796875 16.375 59.714844 16.234375 59.691406 16.070312 C 59.683594 16.023438 59.679688 15.976562 59.683594 15.933594 C 59.433594 15.402344 59.132812 14.890625 58.789062 14.410156 C 58.703125 14.292969 58.613281 14.175781 58.523438 14.058594 L 58.5 14.03125 C 57.4375 12.683594 56 11.558594 54.3125 10.757812 C 52.523438 9.90625 50.453125 9.421875 48.246094 9.421875 C 45.695312 9.421875 43.328125 10.070312 41.367188 11.179688 C 39.359375 12.316406 37.777344 13.929688 36.859375 15.828125 C 36.566406 16.429688 36.339844 17.058594 36.191406 17.707031 L 36.148438 17.902344 C 36.03125 18.46875 35.96875 19.058594 35.96875 19.664062 C 35.96875 20.398438 36.050781 21.074219 36.207031 21.691406 C 36.363281 22.308594 36.589844 22.867188 36.882812 23.367188 Z M 36.074219 24.554688 C 35.875 24.621094 35.667969 24.679688 35.460938 24.722656 C 35.066406 24.808594 34.660156 24.855469 34.246094 24.855469 C 32.746094 24.855469 31.386719 24.277344 30.398438 23.34375 C 29.398438 22.402344 28.78125 21.097656 28.78125 19.65625 C 28.78125 18.214844 29.398438 16.910156 30.398438 15.964844 C 31.386719 15.035156 32.746094 14.457031 34.246094 14.457031 C 34.640625 14.457031 35.03125 14.5 35.414062 14.578125 L 35.441406 14.585938 C 35.613281 14.621094 35.777344 14.664062 35.941406 14.714844 C 37.003906 12.804688 38.664062 11.183594 40.710938 10.027344 C 42.871094 8.804688 45.460938 8.09375 48.246094 8.09375 C 50.652344 8.09375 52.914062 8.625 54.878906 9.558594 C 56.585938 10.371094 58.066406 11.488281 59.21875 12.820312 C 59.464844 12.726562 59.71875 12.644531 59.980469 12.582031 C 60.417969 12.476562 60.863281 12.421875 61.316406 12.421875 C 62.816406 12.421875 64.175781 13 65.164062 13.933594 C 66.164062 14.875 66.78125 16.179688 66.78125 17.621094 C 66.78125 19.0625 66.164062 20.367188 65.164062 21.308594 C 64.175781 22.242188 62.816406 22.820312 61.316406 22.820312 L 61.214844 22.816406 C 60.363281 24.765625 58.714844 26.199219 56.582031 27.183594 C 54.085938 28.335938 50.917969 28.863281 47.609375 28.863281 C 44.816406 28.863281 42.308594 28.488281 40.261719 27.675781 C 38.488281 26.976562 37.054688 25.945312 36.074219 24.554688 Z M 35.179688 23.425781 L 35.398438 23.375 C 35.199219 22.945312 35.039062 22.492188 34.917969 22.011719 C 34.734375 21.289062 34.636719 20.503906 34.636719 19.664062 C 34.636719 19.238281 34.664062 18.820312 34.71875 18.40625 C 34.042969 18.523438 33.113281 18.988281 33.074219 20.664062 C 33.066406 21.03125 32.761719 21.320312 32.394531 21.3125 C 32.03125 21.300781 31.742188 21 31.75 20.632812 C 31.824219 17.542969 33.921875 17.082031 34.988281 17.042969 C 35.09375 16.664062 35.21875 16.292969 35.363281 15.925781 L 35.144531 15.875 C 34.859375 15.816406 34.5625 15.785156 34.246094 15.785156 C 33.09375 15.785156 32.054688 16.226562 31.308594 16.933594 C 30.570312 17.628906 30.113281 18.59375 30.113281 19.65625 C 30.113281 20.71875 30.570312 21.679688 31.308594 22.378906 C 32.054688 23.085938 33.09375 23.523438 34.246094 23.523438 C 34.570312 23.523438 34.882812 23.488281 35.179688 23.425781 Z M 60.84375 15.285156 C 61.910156 15.316406 64.03125 15.769531 64.105469 18.875 C 64.113281 19.242188 63.824219 19.546875 63.457031 19.554688 C 63.09375 19.5625 62.789062 19.273438 62.78125 18.90625 C 62.746094 17.449219 62.035156 16.90625 61.40625 16.714844 C 61.699219 17.65625 61.851562 18.644531 61.851562 19.664062 C 61.851562 20.136719 61.8125 20.597656 61.738281 21.046875 C 61.714844 21.191406 61.6875 21.335938 61.65625 21.476562 C 62.671875 21.398438 63.578125 20.980469 64.253906 20.34375 C 64.992188 19.644531 65.449219 18.683594 65.449219 17.621094 C 65.449219 16.558594 64.992188 15.59375 64.253906 14.898438 C 63.503906 14.191406 62.464844 13.75 61.316406 13.75 C 60.953125 13.75 60.609375 13.792969 60.289062 13.871094 L 60.066406 13.929688 C 60.359375 14.363281 60.621094 14.820312 60.84375 15.285156 Z M 60.84375 15.285156 " fill-opacity="1" fill-rule="nonzero"/><path fill="#ffffff" d="M 41.875 21.675781 C 41.679688 21.367188 41.769531 20.957031 42.078125 20.761719 C 42.386719 20.566406 42.796875 20.65625 42.992188 20.964844 C 42.996094 20.96875 44.371094 23.21875 48.160156 23.25 C 51.921875 23.285156 53.472656 20.433594 53.476562 20.425781 C 53.65625 20.105469 54.0625 19.992188 54.378906 20.171875 C 54.699219 20.351562 54.8125 20.753906 54.636719 21.074219 C 54.628906 21.085938 52.707031 24.613281 48.152344 24.574219 C 43.628906 24.539062 41.882812 21.683594 41.875 21.675781 Z M 46.996094 14.921875 C 46.816406 14.601562 46.929688 14.195312 47.25 14.015625 C 47.570312 13.835938 47.972656 13.953125 48.152344 14.269531 C 48.15625 14.277344 49.832031 17.179688 48.273438 18.917969 C 48.03125 19.191406 47.613281 19.214844 47.339844 18.972656 C 47.066406 18.726562 47.042969 18.308594 47.289062 18.035156 C 48.199219 17.015625 46.996094 14.925781 46.996094 14.921875 Z M 46.996094 14.921875 " fill-opacity="1" fill-rule="nonzero"/><path fill="#ffffff" d="M 40.652344 22.589844 C 40.285156 22.605469 39.976562 22.320312 39.960938 21.957031 C 39.949219 21.589844 40.234375 21.28125 40.597656 21.265625 C 40.601562 21.265625 42.136719 21.242188 42.441406 20.324219 C 42.558594 19.976562 42.929688 19.789062 43.277344 19.902344 C 43.625 20.019531 43.8125 20.390625 43.699219 20.738281 C 43.089844 22.5625 40.65625 22.589844 40.652344 22.589844 Z M 40.652344 22.589844 " fill-opacity="1" fill-rule="nonzero"/><path fill="#ffffff" d="M 52.699219 20.335938 C 52.554688 19.996094 52.710938 19.609375 53.050781 19.464844 C 53.386719 19.320312 53.777344 19.476562 53.917969 19.816406 C 53.921875 19.816406 54.203125 20.460938 55.355469 20.328125 C 55.722656 20.289062 56.050781 20.550781 56.089844 20.914062 C 56.132812 21.277344 55.871094 21.605469 55.507812 21.648438 C 53.382812 21.890625 52.699219 20.339844 52.699219 20.335938 Z M 52.699219 20.335938 " fill-opacity="1" fill-rule="nonzero"/><path fill="#ffffff" d="M 43.539062 14.601562 C 44.074219 14.601562 44.507812 15.316406 44.507812 16.195312 C 44.507812 17.078125 44.074219 17.789062 43.539062 17.789062 C 43.003906 17.789062 42.570312 17.078125 42.570312 16.195312 C 42.570312 15.316406 43.003906 14.601562 43.539062 14.601562 Z M 43.539062 14.601562 " fill-opacity="1" fill-rule="evenodd"/><path fill="#ffffff" d="M 52.804688 14.375 C 53.335938 14.375 53.769531 15.089844 53.769531 15.96875 C 53.769531 16.847656 53.335938 17.5625 52.804688 17.5625 C 52.269531 17.5625 51.835938 16.847656 51.835938 15.96875 C 51.835938 15.089844 52.269531 14.375 52.804688 14.375 Z M 52.804688 14.375 " fill-opacity="1" fill-rule="evenodd"/><path fill="#ffffff" d="M 33.375 15.269531 C 33.425781 15.628906 33.167969 15.964844 32.808594 16.011719 C 32.445312 16.0625 32.109375 15.808594 32.0625 15.445312 C 32.058594 15.417969 30.875 7.601562 37.296875 4.980469 C 36.75 4.414062 36.507812 3.851562 36.511719 3.320312 C 36.519531 2.476562 37.101562 1.796875 38.070312 1.304688 C 38.886719 0.890625 40.007812 0.597656 41.28125 0.449219 C 45.316406 -0.015625 51.054688 0.988281 53.539062 4.382812 C 53.765625 4.691406 53.949219 4.980469 54.097656 5.246094 C 55.917969 5.792969 57.402344 6.566406 58.597656 7.414062 C 61.710938 9.617188 62.902344 12.363281 63.121094 13.011719 C 63.242188 13.359375 63.054688 13.734375 62.707031 13.851562 C 62.359375 13.972656 61.984375 13.785156 61.867188 13.4375 C 61.675781 12.875 60.625 10.476562 57.832031 8.496094 C 56.929688 7.855469 55.847656 7.265625 54.558594 6.796875 C 54.53125 7.203125 54.34375 7.511719 54.039062 7.734375 C 53.304688 8.269531 51.796875 8.023438 50.507812 7.515625 C 49.132812 6.980469 47.960938 6.0625 48.0625 5.375 C 48.160156 4.707031 49.09375 4.3125 51.425781 4.65625 C 51.675781 4.691406 51.917969 4.734375 52.15625 4.777344 C 49.832031 2.125 44.941406 1.367188 41.433594 1.769531 C 40.308594 1.898438 39.34375 2.148438 38.667969 2.488281 C 38.148438 2.753906 37.839844 3.039062 37.835938 3.324219 C 37.835938 3.636719 38.117188 4.03125 38.761719 4.507812 C 39.359375 4.363281 40.011719 4.253906 40.71875 4.191406 C 43.546875 3.945312 45.214844 4.269531 45.980469 4.75 C 46.722656 5.21875 46.871094 5.832031 46.558594 6.429688 C 46.332031 6.863281 45.804688 7.234375 45.066406 7.4375 C 43.640625 7.824219 41.191406 7.660156 38.535156 5.960938 C 32.269531 7.945312 33.371094 15.246094 33.375 15.269531 Z M 40.832031 5.515625 L 40.53125 5.546875 C 42.277344 6.351562 43.785156 6.410156 44.714844 6.15625 L 44.71875 6.160156 C 45.09375 6.054688 45.324219 5.933594 45.382812 5.820312 C 45.414062 5.761719 45.316406 5.898438 45.277344 5.875 C 44.714844 5.519531 43.339844 5.296875 40.832031 5.515625 Z M 53.253906 6.664062 C 53.300781 6.628906 53.300781 6.539062 53.234375 6.378906 C 52.609375 6.214844 51.945312 6.074219 51.234375 5.96875 C 49.863281 5.769531 49.386719 5.496094 49.375 5.566406 C 49.367188 5.613281 50.136719 5.945312 50.988281 6.28125 C 51.929688 6.648438 52.9375 6.894531 53.253906 6.664062 Z M 53.253906 6.664062 " fill-opacity="1" fill-rule="nonzero"/><path stroke-linecap="butt" transform="matrix(0.734795, 0.134073, -0.134073, 0.734795, 54.486996, 42.323561)" fill="none" stroke-linejoin="miter" d="M -0.000175855 1.999784 L 35.87784 1.997506 " stroke="#fc7837" stroke-width="4" stroke-opacity="1" stroke-miterlimit="4"/></svg>