<svg xmlns="http://www.w3.org/2000/svg" xmlns:xlink="http://www.w3.org/1999/xlink" width="216" zoomAndPan="magnify" viewBox="0 0 162 101.249998" height="135" preserveAspectRatio="xMidYMid meet" version="1.0"><defs><clipPath id="935ca01baa"><path d="M 81 61 L 130 61 L 130 100.503906 L 81 100.503906 Z M 81 61 " clip-rule="nonzero"/></clipPath><clipPath id="5e2887e873"><path d="M 46 66 L 91 66 L 91 100.503906 L 46 100.503906 Z M 46 66 " clip-rule="nonzero"/></clipPath><clipPath id="a5c4dcbc90"><path d="M 47 100 L 69 100 L 69 100.503906 L 47 100.503906 Z M 47 100 " clip-rule="nonzero"/></clipPath><clipPath id="e0f0856188"><path d="M 83 93 L 104 93 L 104 100.503906 L 83 100.503906 Z M 83 93 " clip-rule="nonzero"/></clipPath></defs><path fill="#b1e096" d="M 138.113281 39.359375 C 138.105469 39.386719 135.542969 48.800781 123.351562 41.253906 C 94.03125 23.101562 84.582031 32.0625 70.347656 45.558594 C 59.230469 56.097656 48.636719 15.5 10.414062 38.644531 L 21.777344 57.40625 C 32.507812 50.90625 41.699219 57.113281 49.082031 62.101562 C 60.386719 69.738281 71.207031 83.398438 83.105469 72.585938 C 84.195312 71.59375 85.652344 70.210938 87.054688 68.882812 C 93.898438 62.394531 98.441406 58.085938 113.378906 67.332031 C 150.5 90.3125 159.253906 45.492188 159.285156 45.382812 Z M 138.113281 39.359375 " fill-opacity="1" fill-rule="nonzero"/><path fill="#ffffff" d="M 157.246094 45.054688 C 156.976562 45.511719 156.386719 45.664062 155.929688 45.394531 C 155.472656 45.128906 155.320312 44.539062 155.585938 44.082031 C 155.871094 43.605469 156.15625 43.105469 156.441406 42.597656 C 157.3125 41.035156 158.121094 39.433594 158.582031 38.152344 C 158.890625 37.28125 159.085938 36.6875 159.054688 36.65625 L 159.027344 36.644531 C 157.765625 35.992188 156.5625 38.648438 156.558594 38.652344 C 156.332031 39.132812 155.761719 39.339844 155.28125 39.117188 C 154.902344 38.941406 154.691406 38.542969 154.734375 38.148438 C 154.734375 38.132812 155.371094 32.367188 154.5625 31.972656 C 154.070312 31.730469 152.09375 36.644531 152.085938 36.660156 C 151.890625 37.152344 151.328125 37.390625 150.835938 37.195312 C 150.441406 37.035156 150.207031 36.640625 150.234375 36.238281 C 150.234375 36.222656 150.65625 30.171875 149.246094 29.707031 C 148.109375 29.332031 146.386719 35.695312 146.382812 35.714844 C 146.242188 36.222656 145.710938 36.523438 145.199219 36.382812 C 144.800781 36.273438 144.53125 35.925781 144.496094 35.535156 C 144.492188 35.527344 144.257812 32.414062 142.628906 32.207031 L 142.625 32.207031 C 142.605469 32.234375 142.488281 32.585938 142.316406 33.121094 C 142.019531 34.03125 141.808594 35.3125 141.65625 36.667969 C 141.53125 37.8125 141.449219 38.996094 141.394531 40.066406 C 141.371094 40.597656 140.921875 41.007812 140.390625 40.980469 C 139.859375 40.957031 139.453125 40.507812 139.476562 39.976562 C 139.53125 38.855469 139.617188 37.625 139.746094 36.457031 C 139.90625 34.984375 140.144531 33.574219 140.484375 32.523438 C 140.929688 31.152344 141.613281 30.277344 142.636719 30.28125 C 142.699219 30.28125 142.757812 30.285156 142.820312 30.289062 C 144.144531 30.4375 144.984375 31.304688 145.519531 32.285156 C 146.453125 29.984375 147.988281 27.261719 149.847656 27.875 C 151.273438 28.347656 151.851562 30.480469 152.070312 32.488281 C 153.035156 30.984375 154.261719 29.679688 155.40625 30.242188 C 156.546875 30.796875 156.804688 33.199219 156.808594 35.242188 C 157.636719 34.617188 158.695312 34.292969 159.921875 34.941406 L 160.027344 35 C 161.0625 35.613281 161.027344 37.027344 160.394531 38.800781 C 159.90625 40.171875 159.046875 41.871094 158.121094 43.53125 C 157.835938 44.042969 157.539062 44.554688 157.246094 45.054688 Z M 157.246094 45.054688 " fill-opacity="1" fill-rule="nonzero"/><path fill="#ffffff" d="M 18.753906 54.007812 C 19.132812 53.636719 19.742188 53.640625 20.113281 54.019531 C 20.484375 54.398438 20.480469 55.007812 20.101562 55.378906 C 19.683594 55.789062 19.257812 56.199219 18.835938 56.59375 C 17.457031 57.890625 16.011719 59.132812 14.789062 59.945312 C 13.21875 60.988281 11.855469 61.363281 11.011719 60.507812 L 10.988281 60.480469 C 10.003906 59.429688 10.0625 58.296875 10.484375 57.316406 C 8.492188 57.808594 6.09375 58.136719 5.28125 57.167969 C 4.460938 56.1875 5.421875 54.6875 6.640625 53.394531 C 4.644531 53.664062 2.449219 53.617188 1.648438 52.34375 C 0.605469 50.691406 2.882812 48.542969 4.890625 47.078125 C 3.804688 46.796875 2.753906 46.191406 2.292969 44.941406 L 2.261719 44.84375 C 1.953125 43.824219 2.640625 42.921875 3.898438 42.136719 C 4.835938 41.550781 6.148438 40.984375 7.535156 40.46875 C 8.648438 40.058594 9.820312 39.679688 10.886719 39.359375 C 11.394531 39.207031 11.933594 39.5 12.085938 40.007812 C 12.234375 40.515625 11.945312 41.054688 11.4375 41.203125 C 10.40625 41.515625 9.273438 41.882812 8.199219 42.277344 C 6.921875 42.75 5.730469 43.261719 4.917969 43.769531 C 4.433594 44.070312 4.121094 44.273438 4.105469 44.292969 C 4.695312 45.835938 7.769531 45.304688 7.777344 45.304688 C 8.167969 45.238281 8.578125 45.421875 8.78125 45.789062 C 9.039062 46.25 8.875 46.835938 8.410156 47.09375 C 8.394531 47.101562 2.628906 50.300781 3.273438 51.320312 C 4.0625 52.570312 9.839844 50.707031 9.859375 50.703125 C 10.242188 50.582031 10.671875 50.710938 10.921875 51.050781 C 11.238281 51.480469 11.144531 52.082031 10.714844 52.394531 C 10.703125 52.40625 6.414062 55.527344 6.757812 55.933594 C 7.320312 56.605469 12.335938 54.773438 12.757812 54.617188 C 13.144531 54.460938 13.605469 54.570312 13.875 54.917969 C 14.203125 55.335938 14.132812 55.941406 13.714844 56.269531 C 13.707031 56.273438 11.390625 58.09375 12.386719 59.160156 C 12.4375 59.179688 12.964844 58.847656 13.726562 58.339844 C 14.851562 57.59375 16.207031 56.421875 17.519531 55.195312 C 17.949219 54.792969 18.363281 54.390625 18.753906 54.007812 Z M 18.753906 54.007812 " fill-opacity="1" fill-rule="nonzero"/><path fill="#ffffff" d="M 96.773438 31.671875 L 96.824219 31.582031 C 97.25 30.855469 97.582031 30.046875 97.808594 29.152344 C 98.035156 28.257812 98.15625 27.277344 98.15625 26.210938 C 98.15625 25.335938 98.066406 24.480469 97.894531 23.65625 L 97.832031 23.375 C 97.613281 22.433594 97.285156 21.523438 96.863281 20.648438 C 95.527344 17.898438 93.234375 15.554688 90.324219 13.910156 C 87.480469 12.300781 84.050781 11.359375 80.351562 11.359375 C 77.148438 11.359375 74.148438 12.0625 71.554688 13.296875 C 69.109375 14.460938 67.023438 16.089844 65.480469 18.042969 L 65.445312 18.085938 C 65.316406 18.253906 65.1875 18.421875 65.066406 18.59375 C 64.5625 19.292969 64.125 20.03125 63.765625 20.804688 C 63.769531 20.867188 63.765625 20.933594 63.753906 21 C 63.71875 21.238281 63.597656 21.445312 63.425781 21.589844 C 63.339844 21.8125 63.257812 22.035156 63.183594 22.261719 C 62.769531 23.515625 62.546875 24.84375 62.546875 26.210938 C 62.546875 26.808594 62.59375 27.371094 62.679688 27.898438 C 62.769531 28.4375 62.90625 28.957031 63.085938 29.457031 C 64.03125 32.097656 66.191406 34.039062 69.066406 35.367188 C 72.421875 36.914062 76.734375 37.625 81.273438 37.625 C 85.085938 37.625 88.484375 37.121094 91.21875 36.039062 C 93.679688 35.066406 95.59375 33.628906 96.773438 31.671875 Z M 98.980469 31.589844 L 99.296875 31.667969 C 99.730469 31.761719 100.183594 31.808594 100.652344 31.808594 C 102.320312 31.808594 103.824219 31.175781 104.914062 30.148438 C 105.984375 29.136719 106.644531 27.738281 106.644531 26.199219 C 106.644531 24.660156 105.984375 23.261719 104.914062 22.25 C 103.824219 21.226562 102.320312 20.589844 100.652344 20.589844 C 100.195312 20.589844 99.757812 20.636719 99.347656 20.71875 L 99.027344 20.792969 C 99.242188 21.320312 99.421875 21.863281 99.574219 22.414062 C 101.125 22.464844 104.164062 23.140625 104.273438 27.617188 C 104.285156 28.148438 103.863281 28.589844 103.335938 28.601562 C 102.804688 28.613281 102.363281 28.191406 102.351562 27.664062 C 102.292969 25.234375 100.941406 24.558594 99.964844 24.386719 C 100.042969 24.988281 100.082031 25.597656 100.082031 26.210938 C 100.082031 27.433594 99.945312 28.566406 99.679688 29.617188 C 99.503906 30.3125 99.269531 30.96875 98.980469 31.589844 Z M 98.890625 33.550781 C 98.589844 33.484375 98.289062 33.402344 97.996094 33.300781 C 96.578125 35.320312 94.5 36.8125 91.929688 37.832031 C 88.960938 39.003906 85.320312 39.550781 81.273438 39.550781 C 76.476562 39.550781 71.882812 38.785156 68.261719 37.113281 C 65.171875 35.6875 62.777344 33.605469 61.542969 30.785156 L 61.398438 30.789062 C 59.222656 30.789062 57.25 29.949219 55.816406 28.597656 C 54.371094 27.230469 53.472656 25.339844 53.472656 23.25 C 53.472656 21.160156 54.371094 19.269531 55.816406 17.898438 C 57.25 16.546875 59.222656 15.710938 61.398438 15.710938 C 62.054688 15.710938 62.703125 15.792969 63.332031 15.941406 C 63.710938 16.03125 64.082031 16.148438 64.4375 16.289062 C 66.109375 14.355469 68.257812 12.734375 70.734375 11.558594 C 73.582031 10.203125 76.863281 9.433594 80.351562 9.433594 C 84.386719 9.433594 88.144531 10.464844 91.273438 12.238281 C 94.246094 13.917969 96.648438 16.269531 98.191406 19.035156 C 98.429688 18.960938 98.671875 18.898438 98.917969 18.847656 L 98.957031 18.835938 C 99.511719 18.722656 100.078125 18.660156 100.652344 18.660156 C 102.824219 18.660156 104.796875 19.5 106.230469 20.851562 C 107.679688 22.21875 108.574219 24.109375 108.574219 26.199219 C 108.574219 28.289062 107.679688 30.179688 106.230469 31.546875 C 104.796875 32.902344 102.824219 33.738281 100.652344 33.738281 C 100.050781 33.738281 99.460938 33.671875 98.890625 33.550781 Z M 61.265625 21.933594 C 60.355469 22.214844 59.324219 23 59.273438 25.113281 C 59.261719 25.644531 58.824219 26.066406 58.292969 26.050781 C 57.761719 26.039062 57.34375 25.601562 57.355469 25.070312 C 57.460938 20.566406 60.539062 19.910156 62.082031 19.863281 C 62.40625 19.1875 62.785156 18.527344 63.210938 17.894531 L 62.886719 17.808594 C 62.421875 17.699219 61.921875 17.640625 61.398438 17.640625 C 59.730469 17.640625 58.222656 18.273438 57.136719 19.300781 C 56.066406 20.3125 55.402344 21.707031 55.402344 23.25 C 55.402344 24.789062 56.066406 26.1875 57.136719 27.199219 C 58.113281 28.121094 59.433594 28.730469 60.90625 28.839844 C 60.859375 28.636719 60.820312 28.425781 60.785156 28.214844 C 60.675781 27.566406 60.617188 26.898438 60.617188 26.210938 C 60.617188 24.734375 60.84375 23.300781 61.265625 21.933594 Z M 61.265625 21.933594 " fill-opacity="1" fill-rule="nonzero"/><path fill="#ffffff" d="M 87.96875 28.097656 C 88.25 27.648438 88.847656 27.519531 89.292969 27.804688 C 89.738281 28.085938 89.871094 28.683594 89.585938 29.128906 C 89.578125 29.140625 87.046875 33.28125 80.488281 33.335938 C 73.882812 33.390625 71.09375 28.273438 71.085938 28.257812 C 70.824219 27.796875 70.992188 27.207031 71.453125 26.949219 C 71.917969 26.6875 72.503906 26.855469 72.765625 27.316406 C 72.769531 27.328125 75.019531 31.460938 80.472656 31.414062 C 85.96875 31.367188 87.960938 28.105469 87.96875 28.097656 Z M 80.484375 18.390625 C 80.746094 17.929688 81.332031 17.761719 81.796875 18.023438 C 82.257812 18.28125 82.425781 18.871094 82.164062 19.332031 C 82.160156 19.339844 80.417969 22.375 81.738281 23.851562 C 82.09375 24.246094 82.058594 24.855469 81.664062 25.207031 C 81.269531 25.5625 80.660156 25.527344 80.308594 25.132812 C 78.050781 22.605469 80.480469 18.402344 80.484375 18.390625 Z M 80.484375 18.390625 " fill-opacity="1" fill-rule="nonzero"/><path fill="#ffffff" d="M 91.4375 28.535156 C 91.96875 28.558594 92.382812 29.003906 92.363281 29.535156 C 92.339844 30.066406 91.894531 30.476562 91.363281 30.457031 C 91.355469 30.457031 87.824219 30.417969 86.945312 27.769531 C 86.777344 27.269531 87.050781 26.726562 87.554688 26.558594 C 88.058594 26.394531 88.601562 26.664062 88.765625 27.167969 C 89.207031 28.496094 91.433594 28.535156 91.4375 28.535156 Z M 91.4375 28.535156 " fill-opacity="1" fill-rule="nonzero"/><path fill="#ffffff" d="M 72.125 26.429688 C 72.332031 25.941406 72.894531 25.714844 73.386719 25.921875 C 73.875 26.132812 74.101562 26.695312 73.894531 27.183594 C 73.890625 27.191406 72.902344 29.441406 69.820312 29.089844 C 69.292969 29.027344 68.914062 28.550781 68.972656 28.023438 C 69.035156 27.496094 69.511719 27.117188 70.039062 27.175781 C 71.710938 27.367188 72.121094 26.433594 72.125 26.429688 Z M 72.125 26.429688 " fill-opacity="1" fill-rule="nonzero"/><path fill="#ffffff" d="M 87.175781 18.871094 C 86.398438 18.871094 85.769531 19.90625 85.769531 21.183594 C 85.769531 22.460938 86.398438 23.496094 87.175781 23.496094 C 87.949219 23.496094 88.578125 22.460938 88.578125 21.183594 C 88.578125 19.90625 87.949219 18.871094 87.175781 18.871094 Z M 87.175781 18.871094 " fill-opacity="1" fill-rule="evenodd"/><path fill="#ffffff" d="M 73.742188 18.542969 C 72.964844 18.542969 72.339844 19.578125 72.339844 20.855469 C 72.339844 22.132812 72.964844 23.164062 73.742188 23.164062 C 74.515625 23.164062 75.144531 22.132812 75.144531 20.855469 C 75.144531 19.578125 74.515625 18.542969 73.742188 18.542969 Z M 73.742188 18.542969 " fill-opacity="1" fill-rule="evenodd"/><g clip-path="url(#935ca01baa)"><path fill="#ffffff" d="M 103.269531 62.6875 C 103.359375 62.164062 103.859375 61.8125 104.382812 61.90625 C 104.90625 61.996094 105.257812 62.496094 105.164062 63.019531 C 105.160156 63.054688 100.511719 89.734375 107.542969 110.90625 C 111.011719 121.359375 117.34375 130.460938 128.53125 134.25 C 129.035156 134.417969 129.304688 134.964844 129.136719 135.46875 C 129.121094 135.511719 129.101562 135.554688 129.082031 135.597656 L 119.476562 157.105469 C 119.261719 157.589844 118.691406 157.804688 118.207031 157.589844 C 117.921875 157.460938 117.730469 157.214844 117.664062 156.929688 L 116.011719 149.929688 C 111.601562 147.0625 65.382812 115.554688 88.1875 66.597656 C 88.410156 66.117188 88.984375 65.90625 89.46875 66.132812 C 89.949219 66.355469 90.160156 66.929688 89.933594 67.414062 C 67.125 116.375 115.636719 147.421875 117.328125 148.488281 C 117.558594 148.617188 117.734375 148.835938 117.796875 149.113281 L 118.882812 153.71875 L 126.921875 135.714844 C 115.675781 131.511719 109.261719 122.171875 105.71875 111.511719 C 98.535156 89.867188 103.261719 62.726562 103.269531 62.6875 Z M 103.269531 62.6875 " fill-opacity="1" fill-rule="nonzero"/></g><g clip-path="url(#5e2887e873)"><path fill="#ffffff" d="M 67.800781 75.464844 C 67.871094 74.9375 68.351562 74.566406 68.878906 74.636719 C 69.40625 74.703125 69.777344 75.1875 69.707031 75.710938 C 68.539062 84.648438 67.71875 97.609375 70.222656 109.574219 C 72.695312 121.386719 78.421875 132.226562 90.316406 137.144531 C 90.804688 137.347656 91.039062 137.90625 90.839844 138.398438 L 90.800781 138.480469 L 79.785156 159.359375 C 79.539062 159.828125 78.957031 160.007812 78.488281 159.761719 C 78.210938 159.613281 78.035156 159.355469 77.988281 159.066406 L 76.800781 151.96875 C 72.59375 148.828125 28.527344 114.359375 54.492188 66.996094 C 54.746094 66.53125 55.332031 66.359375 55.796875 66.617188 C 56.265625 66.871094 56.433594 67.457031 56.179688 67.921875 C 30.257812 115.207031 76.421875 149.328125 78.191406 150.613281 C 78.417969 150.753906 78.585938 150.988281 78.632812 151.273438 L 79.414062 155.941406 L 88.617188 138.5 C 76.664062 133.113281 70.863281 122.015625 68.339844 109.964844 C 65.78125 97.746094 66.613281 84.550781 67.800781 75.464844 Z M 67.800781 75.464844 " fill-opacity="1" fill-rule="nonzero"/></g><g clip-path="url(#a5c4dcbc90)"><path fill="#ffffff" d="M 47.535156 100.210938 L 68.0625 100.558594 L 68.035156 102.480469 L 47.503906 102.132812 Z M 47.535156 100.210938 " fill-opacity="1" fill-rule="nonzero"/></g><g clip-path="url(#e0f0856188)"><path fill="#ffffff" d="M 83.089844 99.289062 L 103.03125 93.960938 L 103.53125 95.820312 L 83.585938 101.148438 Z M 83.089844 99.289062 " fill-opacity="1" fill-rule="nonzero"/></g><path fill="#ffffff" d="M 60.445312 16.796875 C 60.441406 16.75 58.351562 1.15625 70.25 3.753906 C 74.925781 4.773438 77.074219 3.5 78.796875 2.484375 C 81.160156 1.082031 82.882812 0.0625 87.265625 3.511719 C 89.59375 5.34375 92.210938 5.769531 94.5625 6.148438 C 99.839844 7.003906 103.957031 7.671875 102.859375 19.816406 L 100.949219 19.648438 C 101.882812 9.285156 98.542969 8.742188 94.261719 8.046875 C 91.671875 7.628906 88.789062 7.160156 86.074219 5.027344 C 82.726562 2.390625 81.484375 3.128906 79.773438 4.140625 C 77.765625 5.332031 75.253906 6.816406 69.84375 5.636719 C 60.625 3.621094 62.347656 16.519531 62.351562 16.554688 Z M 60.445312 16.796875 " fill-opacity="1" fill-rule="nonzero"/><path stroke-linecap="butt" transform="matrix(0.732393, 0.133635, -0.133635, 0.732393, 95.745298, 42.347013)" fill="none" stroke-linejoin="miter" d="M -0.00176798 2.001279 L 35.876557 1.999066 " stroke="#b1e096" stroke-width="4" stroke-opacity="1" stroke-miterlimit="4"/></svg>