<svg xmlns="http://www.w3.org/2000/svg" xmlns:xlink="http://www.w3.org/1999/xlink" width="125" zoomAndPan="magnify" viewBox="0 0 93.75 93.749996" height="125" preserveAspectRatio="xMidYMid meet" version="1.0"><defs><clipPath id="3b77a0749b"><path d="M 0 0 L 92.949219 0 L 92.949219 92.949219 L 0 92.949219 Z M 0 0 " clip-rule="nonzero"/></clipPath><clipPath id="e9ba52f713"><path d="M 46.472656 0 C 20.808594 0 0 20.808594 0 46.472656 C 0 72.140625 20.808594 92.949219 46.472656 92.949219 C 72.140625 92.949219 92.949219 72.140625 92.949219 46.472656 C 92.949219 20.808594 72.140625 0 46.472656 0 Z M 46.472656 0 " clip-rule="nonzero"/></clipPath><clipPath id="9bacb55827"><path d="M 0 0 L 92.949219 0 L 92.949219 92.949219 L 0 92.949219 Z M 0 0 " clip-rule="nonzero"/></clipPath><clipPath id="aab00a5620"><path d="M 46.472656 0 C 20.808594 0 0 20.808594 0 46.472656 C 0 72.140625 20.808594 92.949219 46.472656 92.949219 C 72.140625 92.949219 92.949219 72.140625 92.949219 46.472656 C 92.949219 20.808594 72.140625 0 46.472656 0 Z M 46.472656 0 " clip-rule="nonzero"/></clipPath><clipPath id="70ac68beb4"><rect x="0" width="93" y="0" height="93"/></clipPath><clipPath id="52c863b245"><path d="M 13.15625 54 L 79.726562 54 L 79.726562 70.195312 L 13.15625 70.195312 Z M 13.15625 54 " clip-rule="nonzero"/></clipPath><clipPath id="8740334fdb"><path d="M 18 18.585938 L 65 18.585938 L 65 49 L 18 49 Z M 18 18.585938 " clip-rule="nonzero"/></clipPath></defs><g clip-path="url(#3b77a0749b)"><g clip-path="url(#e9ba52f713)"><g transform="matrix(1, 0, 0, 1, 0, 0.000000000000013659)"><g clip-path="url(#70ac68beb4)"><g clip-path="url(#9bacb55827)"><g clip-path="url(#aab00a5620)"><path fill="#353763" d="M 0 0 L 92.949219 0 L 92.949219 92.949219 L 0 92.949219 Z M 0 0 " fill-opacity="1" fill-rule="nonzero"/></g></g></g></g></g></g><g clip-path="url(#52c863b245)"><path fill="#353763" d="M 53.117188 55.886719 L 90.769531 84.449219 C 93.605469 86.601562 93.519531 90.191406 90.574219 92.425781 L 53.316406 120.691406 C 50.371094 122.925781 45.640625 122.996094 42.800781 120.84375 L 5.148438 92.277344 C 2.3125 90.125 2.402344 86.535156 5.347656 84.300781 L 42.605469 56.035156 C 45.550781 53.800781 50.28125 53.734375 53.117188 55.886719 Z M 53.117188 55.886719 " fill-opacity="1" fill-rule="evenodd"/></g><path fill="#ffffff" d="M 28.125 62.648438 C 27.820312 62.820312 27.503906 62.976562 27.175781 63.113281 C 26.574219 63.363281 25.925781 63.558594 25.238281 63.6875 C 22.789062 64.148438 20.394531 63.621094 18.5 62.402344 C 16.589844 61.171875 15.1875 59.234375 14.746094 56.882812 C 14.308594 54.527344 14.914062 52.214844 16.25 50.378906 L 16.308594 50.304688 C 17.636719 48.519531 19.65625 47.195312 22.066406 46.742188 L 22.109375 46.738281 C 22.746094 46.621094 23.382812 46.570312 24.007812 46.582031 C 24.316406 46.589844 24.617188 46.609375 24.914062 46.644531 C 26.066406 43.210938 28.277344 40.0625 31.265625 37.546875 C 34.40625 34.898438 38.417969 32.945312 42.953125 32.097656 C 46.878906 31.363281 50.734375 31.542969 54.214844 32.464844 C 57.246094 33.269531 60.003906 34.636719 62.289062 36.460938 C 62.660156 36.230469 63.050781 36.019531 63.457031 35.839844 C 64.121094 35.542969 64.835938 35.316406 65.585938 35.175781 C 68.03125 34.71875 70.425781 35.242188 72.320312 36.460938 C 74.230469 37.695312 75.632812 39.632812 76.074219 41.984375 L 76.078125 41.996094 C 76.511719 44.34375 75.90625 46.652344 74.570312 48.488281 L 74.511719 48.5625 C 73.183594 50.347656 71.164062 51.671875 68.753906 52.121094 L 68.585938 52.152344 C 67.789062 55.585938 65.539062 58.429688 62.367188 60.679688 C 58.644531 63.316406 53.640625 65.144531 48.25 66.152344 C 43.691406 67.003906 39.488281 67.15625 35.90625 66.460938 C 32.792969 65.855469 30.144531 64.617188 28.125 62.648438 Z M 26.324219 61.078125 L 26.65625 60.929688 C 26.210938 60.292969 25.8125 59.601562 25.464844 58.859375 C 24.949219 57.734375 24.554688 56.488281 24.296875 55.109375 C 24.167969 54.417969 24.082031 53.726562 24.042969 53.035156 C 22.976562 53.433594 21.605469 54.484375 22.046875 57.222656 C 22.144531 57.824219 21.734375 58.386719 21.136719 58.480469 C 20.535156 58.578125 19.972656 58.167969 19.878906 57.570312 C 19.058594 52.5 22.34375 51.113281 24.070312 50.734375 C 24.121094 50.082031 24.214844 49.4375 24.339844 48.796875 L 23.964844 48.78125 C 23.492188 48.769531 23.003906 48.808594 22.507812 48.898438 L 22.472656 48.90625 C 20.625 49.25 19.082031 50.257812 18.078125 51.605469 L 18.035156 51.667969 C 17.039062 53.035156 16.585938 54.746094 16.910156 56.476562 C 17.234375 58.207031 18.273438 59.636719 19.691406 60.550781 C 21.128906 61.480469 22.957031 61.875 24.832031 61.527344 L 24.835938 61.527344 C 25.347656 61.433594 25.847656 61.277344 26.324219 61.078125 Z M 26.757812 48.128906 L 26.726562 48.238281 C 26.445312 49.285156 26.277344 50.359375 26.226562 51.449219 L 26.21875 51.726562 C 26.195312 52.710938 26.273438 53.707031 26.457031 54.703125 C 26.683594 55.898438 27.019531 56.972656 27.464844 57.9375 C 27.914062 58.90625 28.472656 59.761719 29.128906 60.507812 C 30.875 62.492188 33.339844 63.71875 36.320312 64.296875 C 39.628906 64.941406 43.554688 64.792969 47.84375 63.992188 C 52.941406 63.039062 57.644531 61.332031 61.089844 58.886719 C 64.027344 56.804688 66.039062 54.191406 66.566406 51.054688 L 66.589844 50.910156 C 66.675781 50.339844 66.714844 49.753906 66.703125 49.152344 L 66.703125 49.148438 C 66.691406 48.53125 66.625 47.886719 66.5 47.21875 C 66.214844 45.683594 65.683594 44.242188 64.953125 42.914062 C 64.820312 42.675781 64.683594 42.4375 64.539062 42.207031 C 64.316406 42.078125 64.136719 41.875 64.046875 41.617188 C 64.023438 41.542969 64.003906 41.472656 63.996094 41.398438 C 63.425781 40.609375 62.78125 39.867188 62.066406 39.1875 C 61.886719 39.015625 61.703125 38.84375 61.511719 38.679688 L 61.503906 38.671875 C 59.351562 36.792969 56.65625 35.386719 53.65625 34.59375 C 50.476562 33.75 46.953125 33.589844 43.359375 34.261719 C 39.199219 35.039062 35.535156 36.816406 32.675781 39.226562 C 29.769531 41.675781 27.6875 44.773438 26.757812 48.128906 Z M 65.691406 39.988281 C 67.4375 39.714844 71.03125 39.808594 72.097656 44.84375 C 72.226562 45.4375 71.84375 46.023438 71.25 46.148438 C 70.65625 46.277344 70.070312 45.894531 69.945312 45.300781 C 69.441406 42.933594 68.121094 42.261719 67.035156 42.140625 C 67.796875 43.585938 68.351562 45.152344 68.664062 46.816406 C 68.808594 47.59375 68.886719 48.355469 68.902344 49.105469 L 68.902344 49.109375 C 68.90625 49.355469 68.902344 49.597656 68.894531 49.835938 C 70.5 49.410156 71.839844 48.472656 72.746094 47.257812 L 72.789062 47.195312 C 73.765625 45.847656 74.222656 44.164062 73.925781 42.460938 L 73.898438 42.316406 C 73.558594 40.621094 72.53125 39.214844 71.128906 38.3125 C 69.710938 37.398438 67.910156 37 66.0625 37.324219 C 66.011719 37.339844 65.960938 37.347656 65.90625 37.355469 C 65.359375 37.460938 64.839844 37.628906 64.351562 37.847656 L 64.007812 38.011719 C 64.617188 38.632812 65.179688 39.292969 65.691406 39.988281 Z M 65.691406 39.988281 " fill-opacity="1" fill-rule="nonzero"/><path fill="#ffffff" d="M 36.703125 56.183594 C 36.292969 55.738281 36.316406 55.042969 36.761719 54.628906 C 37.207031 54.214844 37.902344 54.238281 38.316406 54.683594 C 38.324219 54.695312 41.246094 57.9375 47.441406 56.835938 C 53.578125 55.742188 55.238281 50.625 55.242188 50.613281 C 55.4375 50.035156 56.0625 49.726562 56.640625 49.921875 C 57.214844 50.117188 57.523438 50.742188 57.328125 51.316406 C 57.320312 51.335938 55.261719 57.679688 47.820312 59.003906 C 40.4375 60.320312 36.714844 56.195312 36.703125 56.183594 Z M 43.003906 43.621094 C 42.609375 43.160156 42.664062 42.464844 43.125 42.070312 C 43.585938 41.675781 44.28125 41.726562 44.675781 42.191406 C 44.6875 42.199219 48.304688 46.433594 46.300781 49.742188 C 45.988281 50.257812 45.3125 50.425781 44.792969 50.109375 C 44.273438 49.796875 44.109375 49.121094 44.421875 48.601562 C 45.601562 46.65625 43.011719 43.628906 43.003906 43.621094 Z M 43.003906 43.621094 " fill-opacity="1" fill-rule="nonzero"/><path fill="#ffffff" d="M 34.960938 58.0625 C 34.363281 58.179688 33.78125 57.792969 33.664062 57.195312 C 33.546875 56.597656 33.933594 56.015625 34.53125 55.898438 C 34.535156 55.898438 36.996094 55.402344 37.21875 53.808594 C 37.296875 53.207031 37.851562 52.785156 38.453125 52.867188 C 39.054688 52.945312 39.476562 53.5 39.398438 54.101562 C 38.960938 57.257812 34.972656 58.058594 34.960938 58.0625 Z M 34.960938 58.0625 " fill-opacity="1" fill-rule="nonzero"/><path fill="#ffffff" d="M 53.957031 50.714844 C 53.613281 50.214844 53.738281 49.53125 54.238281 49.1875 C 54.734375 48.839844 55.421875 48.964844 55.765625 49.464844 C 55.769531 49.46875 56.4375 50.449219 58.277344 49.882812 C 58.859375 49.703125 59.472656 50.03125 59.652344 50.609375 C 59.832031 51.191406 59.503906 51.804688 58.925781 51.984375 C 55.539062 53.027344 53.960938 50.722656 53.957031 50.714844 Z M 53.957031 50.714844 " fill-opacity="1" fill-rule="nonzero"/><path fill="#ffffff" d="M 37.265625 44.144531 C 38.136719 43.980469 39.0625 45.011719 39.328125 46.449219 C 39.597656 47.886719 39.109375 49.179688 38.238281 49.34375 C 37.367188 49.507812 36.441406 48.476562 36.171875 47.039062 C 35.902344 45.605469 36.394531 44.308594 37.265625 44.144531 Z M 37.265625 44.144531 " fill-opacity="1" fill-rule="evenodd"/><path fill="#ffffff" d="M 52.300781 40.949219 C 53.171875 40.789062 54.09375 41.820312 54.363281 43.253906 C 54.632812 44.691406 54.144531 45.988281 53.273438 46.148438 C 52.398438 46.3125 51.476562 45.28125 51.207031 43.84375 C 50.9375 42.410156 51.429688 41.113281 52.300781 40.949219 Z M 52.300781 40.949219 " fill-opacity="1" fill-rule="evenodd"/><g clip-path="url(#8740334fdb)"><path fill="#ffffff" d="M 26.371094 47.035156 C 26.84375 47.414062 26.921875 48.109375 26.539062 48.582031 C 26.160156 49.054688 25.46875 49.128906 24.992188 48.75 C 24.96875 48.726562 15.488281 41.113281 18.828125 34.175781 C 19.960938 31.828125 21.785156 30.808594 23.621094 30.625 C 24.003906 27.796875 25.601562 24.890625 29.171875 23.6875 C 30.425781 23.265625 31.515625 23.109375 32.457031 23.152344 C 33.582031 21.53125 35.332031 20.15625 37.792969 19.585938 C 40.144531 19.039062 41.945312 19.53125 43.226562 20.542969 C 44.730469 19.488281 46.726562 18.75 49.261719 18.667969 C 52.828125 18.554688 55.09375 19.933594 56.328125 21.792969 C 56.929688 21.742188 57.570312 21.738281 58.253906 21.78125 C 59.882812 21.882812 61.144531 22.359375 62.109375 23.09375 C 63.152344 23.894531 63.816406 24.972656 64.191406 26.195312 C 64.542969 27.351562 64.636719 28.625 64.554688 29.898438 C 64.355469 33.039062 63.0625 36.304688 62.035156 37.648438 C 61.667969 38.128906 60.976562 38.222656 60.492188 37.855469 C 60.011719 37.484375 59.917969 36.792969 60.285156 36.3125 C 61.125 35.214844 62.1875 32.46875 62.359375 29.761719 C 62.425781 28.726562 62.355469 27.71875 62.089844 26.84375 C 61.84375 26.039062 61.421875 25.339844 60.773438 24.84375 C 60.144531 24.363281 59.277344 24.050781 58.117188 23.976562 C 57.824219 23.957031 57.542969 23.949219 57.269531 23.953125 C 57.394531 24.464844 57.464844 24.984375 57.476562 25.496094 C 57.503906 26.441406 57.339844 27.363281 57.019531 28.171875 C 56.324219 29.917969 54.90625 31.136719 53.003906 31.011719 C 51.257812 30.898438 50.140625 29.988281 49.679688 28.75 C 49.453125 28.136719 49.398438 27.457031 49.519531 26.773438 C 49.628906 26.128906 49.902344 25.464844 50.332031 24.84375 C 51.050781 23.800781 52.230469 22.855469 53.878906 22.292969 C 52.929688 21.394531 51.453125 20.796875 49.332031 20.867188 C 47.378906 20.929688 45.839844 21.460938 44.671875 22.222656 C 45 22.789062 45.242188 23.40625 45.394531 24.03125 C 45.578125 24.785156 45.632812 25.5625 45.566406 26.289062 C 45.394531 28.164062 44.417969 29.746094 42.707031 30.101562 C 41.484375 30.355469 40.570312 29.890625 40.019531 28.972656 C 39.65625 28.371094 39.488281 27.574219 39.539062 26.695312 C 39.578125 25.898438 39.796875 25.011719 40.203125 24.128906 C 40.523438 23.429688 40.964844 22.722656 41.535156 22.066406 C 40.738281 21.59375 39.660156 21.410156 38.285156 21.730469 C 36.765625 22.082031 35.605469 22.839844 34.769531 23.773438 C 35.15625 23.988281 35.496094 24.25 35.789062 24.550781 C 36.425781 25.199219 36.828125 26.003906 37.023438 26.839844 C 37.210938 27.65625 37.203125 28.507812 37.023438 29.273438 C 36.660156 30.816406 35.617188 32.054688 34.0625 32.191406 C 32.859375 32.300781 31.960938 31.714844 31.402344 30.699219 C 31.0625 30.082031 30.871094 29.292969 30.839844 28.421875 C 30.808594 27.613281 30.917969 26.714844 31.183594 25.816406 L 31.3125 25.410156 C 30.878906 25.476562 30.398438 25.59375 29.871094 25.773438 C 27.320312 26.628906 26.140625 28.710938 25.820312 30.78125 C 26.539062 30.957031 27.210938 31.242188 27.789062 31.601562 C 28.683594 32.160156 29.371094 32.917969 29.691406 33.753906 C 30.132812 34.894531 29.929688 36.101562 28.761719 37.113281 C 27.773438 37.96875 26.765625 38.03125 25.851562 37.53125 C 25.078125 37.109375 24.445312 36.246094 24.042969 35.140625 C 23.800781 34.46875 23.632812 33.691406 23.566406 32.867188 C 22.503906 33.070312 21.480469 33.742188 20.8125 35.132812 C 18.230469 40.488281 26.347656 47.015625 26.371094 47.035156 Z M 26.625 33.472656 C 26.375 33.3125 26.09375 33.179688 25.796875 33.070312 C 25.863281 33.550781 25.96875 33.996094 26.113281 34.390625 C 26.335938 35.003906 26.613281 35.445312 26.902344 35.601562 C 26.992188 35.652344 27.136719 35.613281 27.320312 35.453125 C 27.675781 35.144531 27.75 34.824219 27.644531 34.539062 C 27.5 34.164062 27.128906 33.785156 26.625 33.46875 Z M 34.21875 26.089844 C 34.046875 25.914062 33.832031 25.757812 33.582031 25.636719 C 33.46875 25.902344 33.371094 26.167969 33.292969 26.433594 C 33.097656 27.105469 33.011719 27.765625 33.035156 28.34375 C 33.054688 28.871094 33.15625 29.316406 33.332031 29.640625 C 33.464844 29.882812 33.652344 30.023438 33.871094 30.003906 C 34.363281 29.960938 34.722656 29.4375 34.878906 28.777344 C 34.984375 28.320312 34.988281 27.816406 34.878906 27.332031 C 34.769531 26.871094 34.554688 26.433594 34.21875 26.089844 Z M 43.257812 24.546875 C 43.191406 24.277344 43.101562 24.011719 42.988281 23.757812 C 42.660156 24.171875 42.398438 24.609375 42.203125 25.039062 C 41.914062 25.664062 41.761719 26.277344 41.734375 26.804688 C 41.710938 27.25 41.769531 27.609375 41.90625 27.835938 C 41.964844 27.9375 42.085938 27.984375 42.257812 27.949219 C 42.90625 27.8125 43.292969 27.039062 43.378906 26.09375 C 43.421875 25.601562 43.382812 25.070312 43.257812 24.546875 Z M 55.28125 25.546875 C 55.269531 25.109375 55.199219 24.660156 55.066406 24.226562 C 53.652344 24.597656 52.683594 25.304688 52.140625 26.09375 C 51.898438 26.441406 51.75 26.804688 51.6875 27.152344 C 51.632812 27.460938 51.652344 27.746094 51.738281 27.984375 C 51.90625 28.429688 52.375 28.765625 53.144531 28.816406 C 53.972656 28.871094 54.625 28.25 54.976562 27.359375 C 55.191406 26.824219 55.296875 26.199219 55.28125 25.546875 Z M 55.28125 25.546875 " fill-opacity="1" fill-rule="nonzero"/></g></svg>